<svg width="559" height="246" viewBox="0 0 559 246" fill="none" xmlns="http://www.w3.org/2000/svg">
<g clip-path="url(#clip0_2_2)">
<rect width="559" height="246" fill="white"/>
<path d="M467 25L450.455 25L441 25L441 222L467 222L467 25Z" fill="white" stroke="#F6821F" stroke-width="2"/>
<rect x="429" y="246" width="237" height="19" transform="rotate(-90 429 246)" fill="white"/>
<rect x="22" y="25" width="411" height="196" fill="white" stroke="#0055DC" stroke-width="2"/>
<rect x="48" y="43" width="360" height="138" fill="#E2F5FA" stroke="#0055DC" stroke-width="2"/>
<rect x="66" y="89" width="146" height="27" fill="#003682"/>
<rect x="239" y="89" width="146" height="27" fill="#003682"/>
<rect x="66" y="133" width="146" height="27" fill="#003682"/>
<rect x="239" y="133" width="146" height="27" fill="#003682"/>
<path d="M128.493 98.2727H130.338V103.94C130.338 104.577 130.186 105.134 129.882 105.611C129.581 106.088 129.159 106.46 128.616 106.727C128.074 106.991 127.442 107.124 126.72 107.124C125.996 107.124 125.362 106.991 124.82 106.727C124.277 106.46 123.855 106.088 123.554 105.611C123.253 105.134 123.102 104.577 123.102 103.94V98.2727H124.947V103.783C124.947 104.115 125.02 104.411 125.165 104.669C125.313 104.928 125.52 105.131 125.787 105.278C126.054 105.426 126.365 105.5 126.72 105.5C127.078 105.5 127.389 105.426 127.653 105.278C127.92 105.131 128.126 104.928 128.271 104.669C128.419 104.411 128.493 104.115 128.493 103.783V98.2727ZM137.268 102.321L135.606 102.423C135.578 102.281 135.517 102.153 135.423 102.04C135.329 101.923 135.206 101.831 135.052 101.763C134.902 101.692 134.721 101.656 134.511 101.656C134.23 101.656 133.993 101.716 133.799 101.835C133.606 101.952 133.51 102.108 133.51 102.304C133.51 102.46 133.572 102.592 133.697 102.7C133.822 102.808 134.037 102.895 134.341 102.96L135.525 103.199C136.162 103.33 136.636 103.54 136.949 103.83C137.261 104.119 137.417 104.5 137.417 104.972C137.417 105.401 137.291 105.777 137.038 106.101C136.788 106.425 136.444 106.678 136.007 106.859C135.572 107.038 135.071 107.128 134.502 107.128C133.636 107.128 132.946 106.947 132.431 106.587C131.92 106.223 131.62 105.729 131.532 105.104L133.318 105.01C133.372 105.274 133.502 105.476 133.71 105.615C133.917 105.751 134.183 105.82 134.507 105.82C134.825 105.82 135.081 105.759 135.274 105.636C135.47 105.511 135.569 105.351 135.572 105.155C135.569 104.99 135.5 104.855 135.363 104.75C135.227 104.642 135.017 104.56 134.733 104.503L133.599 104.277C132.96 104.149 132.484 103.928 132.172 103.612C131.862 103.297 131.707 102.895 131.707 102.406C131.707 101.986 131.821 101.624 132.048 101.32C132.278 101.016 132.6 100.781 133.015 100.616C133.433 100.452 133.922 100.369 134.481 100.369C135.308 100.369 135.958 100.544 136.433 100.893C136.91 101.243 137.189 101.719 137.268 102.321ZM141.543 107.128C140.87 107.128 140.29 106.991 139.805 106.719C139.322 106.443 138.95 106.054 138.688 105.551C138.427 105.045 138.296 104.447 138.296 103.757C138.296 103.084 138.427 102.493 138.688 101.984C138.95 101.476 139.317 101.08 139.792 100.795C140.269 100.511 140.829 100.369 141.471 100.369C141.903 100.369 142.305 100.439 142.677 100.578C143.052 100.714 143.379 100.92 143.657 101.196C143.938 101.472 144.157 101.818 144.313 102.236C144.469 102.651 144.548 103.136 144.548 103.693V104.192H139.021V103.067H142.839C142.839 102.805 142.782 102.574 142.668 102.372C142.555 102.17 142.397 102.013 142.195 101.899C141.996 101.783 141.765 101.724 141.501 101.724C141.225 101.724 140.981 101.788 140.768 101.916C140.558 102.041 140.393 102.21 140.273 102.423C140.154 102.634 140.093 102.868 140.09 103.126V104.196C140.09 104.52 140.15 104.8 140.269 105.036C140.391 105.271 140.563 105.453 140.785 105.581C141.006 105.709 141.269 105.773 141.573 105.773C141.775 105.773 141.96 105.744 142.127 105.688C142.295 105.631 142.438 105.545 142.558 105.432C142.677 105.318 142.768 105.179 142.83 105.014L144.509 105.125C144.424 105.528 144.249 105.881 143.985 106.182C143.724 106.48 143.386 106.713 142.971 106.881C142.559 107.045 142.083 107.128 141.543 107.128ZM145.732 107V100.455H147.492V101.597H147.56C147.68 101.19 147.88 100.884 148.161 100.676C148.442 100.466 148.766 100.361 149.133 100.361C149.224 100.361 149.322 100.366 149.427 100.378C149.532 100.389 149.624 100.405 149.704 100.425V102.036C149.619 102.01 149.501 101.987 149.35 101.967C149.2 101.947 149.062 101.938 148.937 101.938C148.67 101.938 148.431 101.996 148.221 102.112C148.013 102.226 147.849 102.385 147.727 102.589C147.607 102.794 147.548 103.03 147.548 103.297V107H145.732ZM156.088 102.321L154.426 102.423C154.398 102.281 154.337 102.153 154.243 102.04C154.15 101.923 154.026 101.831 153.873 101.763C153.722 101.692 153.542 101.656 153.331 101.656C153.05 101.656 152.813 101.716 152.62 101.835C152.426 101.952 152.33 102.108 152.33 102.304C152.33 102.46 152.392 102.592 152.517 102.7C152.642 102.808 152.857 102.895 153.161 102.96L154.346 103.199C154.982 103.33 155.456 103.54 155.769 103.83C156.081 104.119 156.238 104.5 156.238 104.972C156.238 105.401 156.111 105.777 155.858 106.101C155.608 106.425 155.265 106.678 154.827 106.859C154.392 107.038 153.891 107.128 153.323 107.128C152.456 107.128 151.766 106.947 151.252 106.587C150.74 106.223 150.441 105.729 150.353 105.104L152.138 105.01C152.192 105.274 152.323 105.476 152.53 105.615C152.738 105.751 153.003 105.82 153.327 105.82C153.645 105.82 153.901 105.759 154.094 105.636C154.29 105.511 154.39 105.351 154.392 105.155C154.39 104.99 154.32 104.855 154.184 104.75C154.047 104.642 153.837 104.56 153.553 104.503L152.419 104.277C151.78 104.149 151.304 103.928 150.992 103.612C150.682 103.297 150.527 102.895 150.527 102.406C150.527 101.986 150.641 101.624 150.868 101.32C151.098 101.016 151.421 100.781 151.836 100.616C152.253 100.452 152.742 100.369 153.301 100.369C154.128 100.369 154.779 100.544 155.253 100.893C155.73 101.243 156.009 101.719 156.088 102.321Z" fill="white"/>
<path d="M277.661 107H275.684L278.697 98.2727H281.075L284.083 107H282.106L279.92 100.267H279.852L277.661 107ZM277.538 103.57H282.208V105.01H277.538V103.57ZM285.099 109.455V100.455H286.889V101.554H286.97C287.05 101.378 287.165 101.199 287.315 101.017C287.469 100.832 287.668 100.679 287.912 100.557C288.159 100.432 288.466 100.369 288.832 100.369C289.31 100.369 289.75 100.494 290.153 100.744C290.557 100.991 290.879 101.365 291.121 101.865C291.362 102.362 291.483 102.986 291.483 103.736C291.483 104.466 291.365 105.082 291.129 105.585C290.896 106.085 290.578 106.464 290.175 106.723C289.774 106.979 289.325 107.107 288.828 107.107C288.476 107.107 288.176 107.048 287.929 106.932C287.685 106.815 287.484 106.669 287.328 106.493C287.172 106.314 287.053 106.134 286.97 105.952H286.915V109.455H285.099ZM286.876 103.727C286.876 104.116 286.93 104.456 287.038 104.746C287.146 105.036 287.303 105.261 287.507 105.423C287.712 105.582 287.96 105.662 288.253 105.662C288.548 105.662 288.798 105.581 289.003 105.419C289.207 105.254 289.362 105.027 289.467 104.737C289.575 104.445 289.629 104.108 289.629 103.727C289.629 103.349 289.577 103.017 289.472 102.73C289.366 102.443 289.212 102.219 289.007 102.057C288.803 101.895 288.551 101.814 288.253 101.814C287.957 101.814 287.707 101.892 287.503 102.048C287.301 102.205 287.146 102.426 287.038 102.713C286.93 103 286.876 103.338 286.876 103.727ZM292.693 109.455V100.455H294.483V101.554H294.564C294.643 101.378 294.759 101.199 294.909 101.017C295.063 100.832 295.261 100.679 295.506 100.557C295.753 100.432 296.06 100.369 296.426 100.369C296.903 100.369 297.344 100.494 297.747 100.744C298.151 100.991 298.473 101.365 298.714 101.865C298.956 102.362 299.077 102.986 299.077 103.736C299.077 104.466 298.959 105.082 298.723 105.585C298.49 106.085 298.172 106.464 297.768 106.723C297.368 106.979 296.919 107.107 296.422 107.107C296.07 107.107 295.77 107.048 295.523 106.932C295.278 106.815 295.078 106.669 294.922 106.493C294.766 106.314 294.646 106.134 294.564 105.952H294.509V109.455H292.693ZM294.47 103.727C294.47 104.116 294.524 104.456 294.632 104.746C294.74 105.036 294.896 105.261 295.101 105.423C295.305 105.582 295.554 105.662 295.847 105.662C296.142 105.662 296.392 105.581 296.597 105.419C296.801 105.254 296.956 105.027 297.061 104.737C297.169 104.445 297.223 104.108 297.223 103.727C297.223 103.349 297.17 103.017 297.065 102.73C296.96 102.443 296.805 102.219 296.601 102.057C296.396 101.895 296.145 101.814 295.847 101.814C295.551 101.814 295.301 101.892 295.097 102.048C294.895 102.205 294.74 102.426 294.632 102.713C294.524 103 294.47 103.338 294.47 103.727ZM302.102 98.2727V107H300.287V98.2727H302.102ZM303.556 107V100.455H305.372V107H303.556ZM304.468 99.6108C304.199 99.6108 303.967 99.5213 303.774 99.3423C303.583 99.1605 303.488 98.9432 303.488 98.6903C303.488 98.4403 303.583 98.2259 303.774 98.0469C303.967 97.8651 304.199 97.7741 304.468 97.7741C304.738 97.7741 304.968 97.8651 305.159 98.0469C305.352 98.2259 305.449 98.4403 305.449 98.6903C305.449 98.9432 305.352 99.1605 305.159 99.3423C304.968 99.5213 304.738 99.6108 304.468 99.6108ZM309.783 107.128C309.113 107.128 308.536 106.986 308.053 106.702C307.573 106.415 307.204 106.017 306.945 105.509C306.69 105 306.562 104.415 306.562 103.753C306.562 103.082 306.691 102.494 306.95 101.989C307.211 101.48 307.582 101.084 308.062 100.8C308.542 100.513 309.113 100.369 309.775 100.369C310.346 100.369 310.846 100.473 311.275 100.68C311.704 100.888 312.043 101.179 312.293 101.554C312.543 101.929 312.681 102.369 312.707 102.875H310.994C310.945 102.548 310.817 102.286 310.61 102.087C310.406 101.885 310.137 101.784 309.805 101.784C309.523 101.784 309.278 101.861 309.067 102.014C308.86 102.165 308.698 102.385 308.582 102.675C308.465 102.964 308.407 103.315 308.407 103.727C308.407 104.145 308.464 104.5 308.577 104.793C308.694 105.085 308.857 105.308 309.067 105.462C309.278 105.615 309.523 105.692 309.805 105.692C310.012 105.692 310.198 105.649 310.363 105.564C310.531 105.479 310.668 105.355 310.776 105.193C310.887 105.028 310.96 104.831 310.994 104.601H312.707C312.678 105.101 312.542 105.541 312.298 105.922C312.056 106.3 311.722 106.595 311.296 106.808C310.87 107.021 310.366 107.128 309.783 107.128ZM315.735 107.124C315.318 107.124 314.946 107.051 314.619 106.906C314.292 106.759 314.034 106.541 313.843 106.254C313.656 105.964 313.562 105.604 313.562 105.172C313.562 104.808 313.629 104.503 313.762 104.256C313.896 104.009 314.078 103.81 314.308 103.659C314.538 103.509 314.799 103.395 315.092 103.318C315.387 103.241 315.697 103.188 316.021 103.156C316.402 103.116 316.708 103.08 316.941 103.045C317.174 103.009 317.343 102.955 317.449 102.884C317.554 102.812 317.606 102.707 317.606 102.568V102.543C317.606 102.273 317.521 102.064 317.35 101.916C317.183 101.768 316.944 101.695 316.635 101.695C316.308 101.695 316.048 101.767 315.855 101.912C315.662 102.054 315.534 102.233 315.471 102.449L313.792 102.312C313.877 101.915 314.045 101.571 314.295 101.281C314.545 100.989 314.868 100.764 315.262 100.608C315.66 100.449 316.12 100.369 316.643 100.369C317.007 100.369 317.355 100.412 317.687 100.497C318.022 100.582 318.319 100.714 318.578 100.893C318.839 101.072 319.045 101.303 319.196 101.584C319.346 101.862 319.422 102.196 319.422 102.585V107H317.7V106.092H317.649C317.544 106.297 317.403 106.477 317.227 106.634C317.051 106.787 316.839 106.908 316.592 106.996C316.345 107.081 316.059 107.124 315.735 107.124ZM316.255 105.871C316.522 105.871 316.758 105.818 316.963 105.713C317.167 105.605 317.328 105.46 317.444 105.278C317.561 105.097 317.619 104.891 317.619 104.661V103.966C317.562 104.003 317.484 104.037 317.385 104.068C317.288 104.097 317.179 104.124 317.056 104.149C316.934 104.172 316.812 104.193 316.69 104.213C316.568 104.23 316.457 104.246 316.358 104.26C316.145 104.291 315.958 104.341 315.799 104.409C315.64 104.477 315.517 104.57 315.429 104.686C315.341 104.8 315.297 104.942 315.297 105.112C315.297 105.359 315.386 105.548 315.565 105.679C315.747 105.807 315.977 105.871 316.255 105.871ZM324.311 100.455V101.818H320.37V100.455H324.311ZM321.265 98.8864H323.08V104.989C323.08 105.156 323.105 105.287 323.157 105.381C323.208 105.472 323.279 105.536 323.37 105.572C323.463 105.609 323.571 105.628 323.694 105.628C323.779 105.628 323.864 105.621 323.949 105.607C324.034 105.589 324.1 105.577 324.145 105.568L324.431 106.919C324.34 106.947 324.212 106.98 324.047 107.017C323.882 107.057 323.682 107.081 323.446 107.089C323.009 107.107 322.625 107.048 322.296 106.915C321.969 106.781 321.715 106.574 321.533 106.293C321.351 106.011 321.262 105.656 321.265 105.227V98.8864ZM325.494 107V100.455H327.309V107H325.494ZM326.406 99.6108C326.136 99.6108 325.904 99.5213 325.711 99.3423C325.521 99.1605 325.426 98.9432 325.426 98.6903C325.426 98.4403 325.521 98.2259 325.711 98.0469C325.904 97.8651 326.136 97.7741 326.406 97.7741C326.676 97.7741 326.906 97.8651 327.096 98.0469C327.289 98.2259 327.386 98.4403 327.386 98.6903C327.386 98.9432 327.289 99.1605 327.096 99.3423C326.906 99.5213 326.676 99.6108 326.406 99.6108ZM331.721 107.128C331.059 107.128 330.487 106.987 330.004 106.706C329.523 106.422 329.153 106.027 328.891 105.521C328.63 105.013 328.499 104.423 328.499 103.753C328.499 103.077 328.63 102.486 328.891 101.98C329.153 101.472 329.523 101.077 330.004 100.795C330.487 100.511 331.059 100.369 331.721 100.369C332.383 100.369 332.954 100.511 333.434 100.795C333.917 101.077 334.289 101.472 334.55 101.98C334.812 102.486 334.942 103.077 334.942 103.753C334.942 104.423 334.812 105.013 334.55 105.521C334.289 106.027 333.917 106.422 333.434 106.706C332.954 106.987 332.383 107.128 331.721 107.128ZM331.729 105.722C332.031 105.722 332.282 105.636 332.484 105.466C332.685 105.293 332.837 105.057 332.94 104.759C333.045 104.46 333.097 104.121 333.097 103.74C333.097 103.359 333.045 103.02 332.94 102.722C332.837 102.423 332.685 102.187 332.484 102.014C332.282 101.841 332.031 101.754 331.729 101.754C331.425 101.754 331.17 101.841 330.962 102.014C330.758 102.187 330.603 102.423 330.498 102.722C330.396 103.02 330.344 103.359 330.344 103.74C330.344 104.121 330.396 104.46 330.498 104.759C330.603 105.057 330.758 105.293 330.962 105.466C331.17 105.636 331.425 105.722 331.729 105.722ZM337.938 103.216V107H336.123V100.455H337.853V101.609H337.93C338.075 101.229 338.317 100.928 338.658 100.706C338.999 100.482 339.413 100.369 339.898 100.369C340.353 100.369 340.749 100.469 341.087 100.668C341.425 100.866 341.688 101.151 341.876 101.52C342.063 101.886 342.157 102.324 342.157 102.832V107H340.342V103.156C340.344 102.756 340.242 102.443 340.035 102.219C339.827 101.991 339.542 101.878 339.178 101.878C338.934 101.878 338.718 101.93 338.531 102.036C338.346 102.141 338.201 102.294 338.096 102.496C337.994 102.695 337.941 102.935 337.938 103.216ZM349.034 102.321L347.372 102.423C347.343 102.281 347.282 102.153 347.189 102.04C347.095 101.923 346.971 101.831 346.818 101.763C346.667 101.692 346.487 101.656 346.277 101.656C345.995 101.656 345.758 101.716 345.565 101.835C345.372 101.952 345.275 102.108 345.275 102.304C345.275 102.46 345.338 102.592 345.463 102.7C345.588 102.808 345.802 102.895 346.106 102.96L347.291 103.199C347.927 103.33 348.402 103.54 348.714 103.83C349.027 104.119 349.183 104.5 349.183 104.972C349.183 105.401 349.056 105.777 348.804 106.101C348.554 106.425 348.21 106.678 347.772 106.859C347.338 107.038 346.836 107.128 346.268 107.128C345.402 107.128 344.711 106.947 344.197 106.587C343.686 106.223 343.386 105.729 343.298 105.104L345.083 105.01C345.137 105.274 345.268 105.476 345.475 105.615C345.683 105.751 345.949 105.82 346.272 105.82C346.591 105.82 346.846 105.759 347.039 105.636C347.235 105.511 347.335 105.351 347.338 105.155C347.335 104.99 347.265 104.855 347.129 104.75C346.993 104.642 346.782 104.56 346.498 104.503L345.365 104.277C344.725 104.149 344.25 103.928 343.937 103.612C343.627 103.297 343.473 102.895 343.473 102.406C343.473 101.986 343.586 101.624 343.814 101.32C344.044 101.016 344.366 100.781 344.781 100.616C345.199 100.452 345.687 100.369 346.247 100.369C347.074 100.369 347.724 100.544 348.199 100.893C348.676 101.243 348.954 101.719 349.034 102.321Z" fill="white"/>
<path d="M83.0515 151V142.273H88.9322V143.794H84.8967V145.874H88.6296V147.395H84.8967V149.479H88.9492V151H83.0515ZM92.1804 147.216V151H90.3651V144.455H92.0952V145.609H92.1719C92.3168 145.229 92.5597 144.928 92.9006 144.706C93.2415 144.482 93.6548 144.369 94.1406 144.369C94.5952 144.369 94.9915 144.469 95.3295 144.668C95.6676 144.866 95.9304 145.151 96.1179 145.52C96.3054 145.886 96.3991 146.324 96.3991 146.832V151H94.5838V147.156C94.5866 146.756 94.4844 146.443 94.277 146.219C94.0696 145.991 93.7841 145.878 93.4205 145.878C93.1761 145.878 92.9602 145.93 92.7727 146.036C92.5881 146.141 92.4432 146.294 92.3381 146.496C92.2358 146.695 92.1832 146.935 92.1804 147.216ZM100.242 151.107C99.7447 151.107 99.2944 150.979 98.891 150.723C98.4904 150.464 98.1722 150.085 97.9364 149.585C97.7035 149.082 97.587 148.466 97.587 147.736C97.587 146.986 97.7077 146.362 97.9492 145.865C98.1907 145.365 98.5117 144.991 98.9123 144.744C99.3157 144.494 99.7575 144.369 100.238 144.369C100.604 144.369 100.909 144.432 101.154 144.557C101.401 144.679 101.6 144.832 101.75 145.017C101.904 145.199 102.02 145.378 102.1 145.554H102.155V142.273H103.966V151H102.176V149.952H102.1C102.015 150.134 101.894 150.314 101.738 150.493C101.584 150.669 101.384 150.815 101.137 150.932C100.892 151.048 100.594 151.107 100.242 151.107ZM100.817 149.662C101.11 149.662 101.357 149.582 101.559 149.423C101.763 149.261 101.919 149.036 102.027 148.746C102.138 148.456 102.194 148.116 102.194 147.727C102.194 147.338 102.14 147 102.032 146.713C101.924 146.426 101.767 146.205 101.563 146.048C101.358 145.892 101.11 145.814 100.817 145.814C100.519 145.814 100.267 145.895 100.063 146.057C99.8583 146.219 99.7035 146.443 99.5984 146.73C99.4933 147.017 99.4407 147.349 99.4407 147.727C99.4407 148.108 99.4933 148.445 99.5984 148.737C99.7063 149.027 99.8612 149.254 100.063 149.419C100.267 149.581 100.519 149.662 100.817 149.662ZM105.459 153.455V144.455H107.249V145.554H107.33C107.409 145.378 107.524 145.199 107.675 145.017C107.828 144.832 108.027 144.679 108.271 144.557C108.518 144.432 108.825 144.369 109.192 144.369C109.669 144.369 110.109 144.494 110.513 144.744C110.916 144.991 111.239 145.365 111.48 145.865C111.722 146.362 111.842 146.986 111.842 147.736C111.842 148.466 111.724 149.082 111.489 149.585C111.256 150.085 110.938 150.464 110.534 150.723C110.134 150.979 109.685 151.107 109.188 151.107C108.835 151.107 108.536 151.048 108.288 150.932C108.044 150.815 107.844 150.669 107.688 150.493C107.531 150.314 107.412 150.134 107.33 149.952H107.274V153.455H105.459ZM107.236 147.727C107.236 148.116 107.29 148.456 107.398 148.746C107.506 149.036 107.662 149.261 107.866 149.423C108.071 149.582 108.32 149.662 108.612 149.662C108.908 149.662 109.158 149.581 109.362 149.419C109.567 149.254 109.722 149.027 109.827 148.737C109.935 148.445 109.989 148.108 109.989 147.727C109.989 147.349 109.936 147.017 109.831 146.73C109.726 146.443 109.571 146.219 109.366 146.057C109.162 145.895 108.911 145.814 108.612 145.814C108.317 145.814 108.067 145.892 107.862 146.048C107.661 146.205 107.506 146.426 107.398 146.713C107.29 147 107.236 147.338 107.236 147.727ZM116.01 151.128C115.348 151.128 114.776 150.987 114.293 150.706C113.813 150.422 113.442 150.027 113.18 149.521C112.919 149.013 112.788 148.423 112.788 147.753C112.788 147.077 112.919 146.486 113.18 145.98C113.442 145.472 113.813 145.077 114.293 144.795C114.776 144.511 115.348 144.369 116.01 144.369C116.672 144.369 117.243 144.511 117.723 144.795C118.206 145.077 118.578 145.472 118.839 145.98C119.101 146.486 119.232 147.077 119.232 147.753C119.232 148.423 119.101 149.013 118.839 149.521C118.578 150.027 118.206 150.422 117.723 150.706C117.243 150.987 116.672 151.128 116.01 151.128ZM116.018 149.722C116.32 149.722 116.571 149.636 116.773 149.466C116.974 149.293 117.126 149.057 117.229 148.759C117.334 148.46 117.386 148.121 117.386 147.74C117.386 147.359 117.334 147.02 117.229 146.722C117.126 146.423 116.974 146.187 116.773 146.014C116.571 145.841 116.32 145.754 116.018 145.754C115.714 145.754 115.459 145.841 115.251 146.014C115.047 146.187 114.892 146.423 114.787 146.722C114.685 147.02 114.634 147.359 114.634 147.74C114.634 148.121 114.685 148.46 114.787 148.759C114.892 149.057 115.047 149.293 115.251 149.466C115.459 149.636 115.714 149.722 116.018 149.722ZM120.412 151V144.455H122.227V151H120.412ZM121.324 143.611C121.054 143.611 120.822 143.521 120.629 143.342C120.439 143.161 120.344 142.943 120.344 142.69C120.344 142.44 120.439 142.226 120.629 142.047C120.822 141.865 121.054 141.774 121.324 141.774C121.594 141.774 121.824 141.865 122.014 142.047C122.207 142.226 122.304 142.44 122.304 142.69C122.304 142.943 122.207 143.161 122.014 143.342C121.824 143.521 121.594 143.611 121.324 143.611ZM125.497 147.216V151H123.681V144.455H125.412V145.609H125.488C125.633 145.229 125.876 144.928 126.217 144.706C126.558 144.482 126.971 144.369 127.457 144.369C127.912 144.369 128.308 144.469 128.646 144.668C128.984 144.866 129.247 145.151 129.434 145.52C129.622 145.886 129.716 146.324 129.716 146.832V151H127.9V147.156C127.903 146.756 127.801 146.443 127.593 146.219C127.386 145.991 127.1 145.878 126.737 145.878C126.493 145.878 126.277 145.93 126.089 146.036C125.904 146.141 125.76 146.294 125.654 146.496C125.552 146.695 125.5 146.935 125.497 147.216ZM134.628 144.455V145.818H130.686V144.455H134.628ZM131.581 142.886H133.396V148.989C133.396 149.156 133.422 149.287 133.473 149.381C133.524 149.472 133.595 149.536 133.686 149.572C133.78 149.609 133.888 149.628 134.01 149.628C134.095 149.628 134.18 149.621 134.266 149.607C134.351 149.589 134.416 149.577 134.462 149.568L134.747 150.919C134.656 150.947 134.528 150.98 134.364 151.017C134.199 151.057 133.999 151.081 133.763 151.089C133.325 151.107 132.942 151.048 132.612 150.915C132.286 150.781 132.031 150.574 131.849 150.293C131.668 150.011 131.578 149.656 131.581 149.227V142.886ZM141.264 151.128C140.662 151.128 140.142 151.02 139.704 150.804C139.267 150.588 138.93 150.295 138.694 149.926C138.461 149.554 138.345 149.139 138.345 148.682C138.345 148.341 138.413 148.038 138.549 147.774C138.686 147.51 138.876 147.267 139.12 147.045C139.365 146.821 139.649 146.598 139.973 146.376L141.664 145.264C141.883 145.125 142.044 144.979 142.146 144.825C142.248 144.669 142.299 144.5 142.299 144.318C142.299 144.145 142.23 143.984 142.091 143.837C141.951 143.689 141.754 143.616 141.498 143.619C141.328 143.619 141.18 143.658 141.055 143.734C140.93 143.808 140.832 143.906 140.761 144.028C140.693 144.148 140.659 144.281 140.659 144.429C140.659 144.611 140.71 144.795 140.812 144.983C140.914 145.17 141.051 145.369 141.221 145.58C141.392 145.787 141.578 146.011 141.779 146.253L145.917 151H144.025L140.574 147.156C140.346 146.898 140.119 146.628 139.892 146.347C139.667 146.062 139.48 145.761 139.329 145.443C139.179 145.122 139.103 144.774 139.103 144.399C139.103 143.976 139.201 143.595 139.397 143.257C139.596 142.919 139.875 142.652 140.233 142.456C140.591 142.257 141.008 142.158 141.485 142.158C141.951 142.158 142.353 142.253 142.691 142.443C143.032 142.631 143.294 142.881 143.475 143.193C143.66 143.503 143.752 143.844 143.752 144.216C143.752 144.628 143.65 145.001 143.446 145.337C143.244 145.669 142.96 145.967 142.593 146.232L140.812 147.514C140.571 147.69 140.392 147.871 140.275 148.055C140.162 148.237 140.105 148.412 140.105 148.58C140.105 148.787 140.156 148.973 140.258 149.138C140.36 149.303 140.505 149.433 140.693 149.53C140.88 149.624 141.1 149.67 141.353 149.67C141.66 149.67 141.963 149.601 142.261 149.462C142.562 149.32 142.835 149.119 143.079 148.861C143.326 148.599 143.524 148.29 143.672 147.932C143.819 147.574 143.893 147.178 143.893 146.743H145.397C145.397 147.277 145.339 147.759 145.223 148.188C145.106 148.614 144.944 148.986 144.737 149.304C144.529 149.619 144.292 149.878 144.025 150.08C143.94 150.134 143.858 150.185 143.778 150.233C143.699 150.281 143.616 150.332 143.531 150.386C143.207 150.648 142.845 150.837 142.444 150.953C142.047 151.07 141.653 151.128 141.264 151.128ZM152.579 151H149.485V142.273H152.604C153.482 142.273 154.238 142.447 154.871 142.797C155.505 143.143 155.992 143.642 156.333 144.293C156.677 144.943 156.849 145.722 156.849 146.628C156.849 147.537 156.677 148.318 156.333 148.972C155.992 149.625 155.502 150.126 154.863 150.476C154.227 150.825 153.465 151 152.579 151ZM151.33 149.419H152.502C153.048 149.419 153.506 149.322 153.879 149.129C154.254 148.933 154.535 148.631 154.722 148.222C154.913 147.81 155.008 147.278 155.008 146.628C155.008 145.983 154.913 145.456 154.722 145.047C154.535 144.638 154.255 144.337 153.883 144.143C153.511 143.95 153.052 143.854 152.506 143.854H151.33V149.419ZM161.164 151.128C160.491 151.128 159.912 150.991 159.426 150.719C158.943 150.443 158.571 150.054 158.309 149.551C158.048 149.045 157.917 148.447 157.917 147.757C157.917 147.084 158.048 146.493 158.309 145.984C158.571 145.476 158.939 145.08 159.413 144.795C159.89 144.511 160.45 144.369 161.092 144.369C161.524 144.369 161.926 144.439 162.298 144.578C162.673 144.714 163 144.92 163.278 145.196C163.559 145.472 163.778 145.818 163.934 146.236C164.091 146.651 164.169 147.136 164.169 147.693V148.192H158.642V147.067H162.46C162.46 146.805 162.403 146.574 162.289 146.372C162.176 146.17 162.018 146.013 161.816 145.899C161.618 145.783 161.386 145.724 161.122 145.724C160.846 145.724 160.602 145.788 160.389 145.916C160.179 146.041 160.014 146.21 159.895 146.423C159.775 146.634 159.714 146.868 159.711 147.126V148.196C159.711 148.52 159.771 148.8 159.89 149.036C160.012 149.271 160.184 149.453 160.406 149.581C160.627 149.709 160.89 149.773 161.194 149.773C161.396 149.773 161.581 149.744 161.748 149.688C161.916 149.631 162.059 149.545 162.179 149.432C162.298 149.318 162.389 149.179 162.451 149.014L164.13 149.125C164.045 149.528 163.87 149.881 163.606 150.182C163.345 150.48 163.007 150.713 162.592 150.881C162.18 151.045 161.704 151.128 161.164 151.128ZM171.28 144.455L168.991 151H166.946L164.658 144.455H166.575L167.935 149.138H168.003L169.358 144.455H171.28ZM172.209 151V144.455H174.024V151H172.209ZM173.121 143.611C172.851 143.611 172.619 143.521 172.426 143.342C172.236 143.161 172.141 142.943 172.141 142.69C172.141 142.44 172.236 142.226 172.426 142.047C172.619 141.865 172.851 141.774 173.121 141.774C173.391 141.774 173.621 141.865 173.811 142.047C174.004 142.226 174.101 142.44 174.101 142.69C174.101 142.943 174.004 143.161 173.811 143.342C173.621 143.521 173.391 143.611 173.121 143.611ZM178.436 151.128C177.765 151.128 177.189 150.986 176.706 150.702C176.225 150.415 175.856 150.017 175.598 149.509C175.342 149 175.214 148.415 175.214 147.753C175.214 147.082 175.343 146.494 175.602 145.989C175.863 145.48 176.234 145.084 176.714 144.8C177.194 144.513 177.765 144.369 178.427 144.369C178.998 144.369 179.498 144.473 179.927 144.68C180.356 144.888 180.696 145.179 180.946 145.554C181.196 145.929 181.333 146.369 181.359 146.875H179.646C179.598 146.548 179.47 146.286 179.262 146.087C179.058 145.885 178.789 145.784 178.457 145.784C178.176 145.784 177.93 145.861 177.72 146.014C177.512 146.165 177.35 146.385 177.234 146.675C177.118 146.964 177.059 147.315 177.059 147.727C177.059 148.145 177.116 148.5 177.23 148.793C177.346 149.085 177.51 149.308 177.72 149.462C177.93 149.615 178.176 149.692 178.457 149.692C178.664 149.692 178.85 149.649 179.015 149.564C179.183 149.479 179.321 149.355 179.429 149.193C179.539 149.028 179.612 148.831 179.646 148.601H181.359C181.331 149.101 181.194 149.541 180.95 149.922C180.708 150.3 180.375 150.595 179.949 150.808C179.522 151.021 179.018 151.128 178.436 151.128ZM185.504 151.128C184.831 151.128 184.251 150.991 183.766 150.719C183.283 150.443 182.911 150.054 182.649 149.551C182.388 149.045 182.257 148.447 182.257 147.757C182.257 147.084 182.388 146.493 182.649 145.984C182.911 145.476 183.278 145.08 183.753 144.795C184.23 144.511 184.79 144.369 185.432 144.369C185.864 144.369 186.266 144.439 186.638 144.578C187.013 144.714 187.339 144.92 187.618 145.196C187.899 145.472 188.118 145.818 188.274 146.236C188.43 146.651 188.509 147.136 188.509 147.693V148.192H182.982V147.067H186.8C186.8 146.805 186.743 146.574 186.629 146.372C186.516 146.17 186.358 146.013 186.156 145.899C185.957 145.783 185.726 145.724 185.462 145.724C185.186 145.724 184.942 145.788 184.729 145.916C184.518 146.041 184.354 146.21 184.234 146.423C184.115 146.634 184.054 146.868 184.051 147.126V148.196C184.051 148.52 184.111 148.8 184.23 149.036C184.352 149.271 184.524 149.453 184.746 149.581C184.967 149.709 185.23 149.773 185.534 149.773C185.736 149.773 185.92 149.744 186.088 149.688C186.256 149.631 186.399 149.545 186.518 149.432C186.638 149.318 186.729 149.179 186.791 149.014L188.47 149.125C188.385 149.528 188.21 149.881 187.946 150.182C187.685 150.48 187.347 150.713 186.932 150.881C186.52 151.045 186.044 151.128 185.504 151.128ZM195.139 146.321L193.477 146.423C193.449 146.281 193.388 146.153 193.294 146.04C193.2 145.923 193.077 145.831 192.923 145.763C192.773 145.692 192.592 145.656 192.382 145.656C192.101 145.656 191.864 145.716 191.67 145.835C191.477 145.952 191.381 146.108 191.381 146.304C191.381 146.46 191.443 146.592 191.568 146.7C191.693 146.808 191.908 146.895 192.212 146.96L193.396 147.199C194.033 147.33 194.507 147.54 194.82 147.83C195.132 148.119 195.288 148.5 195.288 148.972C195.288 149.401 195.162 149.777 194.909 150.101C194.659 150.425 194.315 150.678 193.878 150.859C193.443 151.038 192.942 151.128 192.374 151.128C191.507 151.128 190.817 150.947 190.303 150.587C189.791 150.223 189.491 149.729 189.403 149.104L191.189 149.01C191.243 149.274 191.374 149.476 191.581 149.615C191.788 149.751 192.054 149.82 192.378 149.82C192.696 149.82 192.952 149.759 193.145 149.636C193.341 149.511 193.44 149.351 193.443 149.155C193.44 148.99 193.371 148.855 193.234 148.75C193.098 148.642 192.888 148.56 192.604 148.503L191.47 148.277C190.831 148.149 190.355 147.928 190.043 147.612C189.733 147.297 189.578 146.895 189.578 146.406C189.578 145.986 189.692 145.624 189.919 145.32C190.149 145.016 190.472 144.781 190.886 144.616C191.304 144.452 191.793 144.369 192.352 144.369C193.179 144.369 193.83 144.544 194.304 144.893C194.781 145.243 195.06 145.719 195.139 146.321Z" fill="white"/>
<path d="M292.211 142.273V151H290.617L286.82 145.507H286.756V151H284.911V142.273H286.53L290.297 147.761H290.374V142.273H292.211ZM296.684 151.128C296.011 151.128 295.431 150.991 294.945 150.719C294.462 150.443 294.09 150.054 293.829 149.551C293.567 149.045 293.437 148.447 293.437 147.757C293.437 147.084 293.567 146.493 293.829 145.984C294.09 145.476 294.458 145.08 294.933 144.795C295.41 144.511 295.969 144.369 296.612 144.369C297.043 144.369 297.445 144.439 297.817 144.578C298.192 144.714 298.519 144.92 298.798 145.196C299.079 145.472 299.298 145.818 299.454 146.236C299.61 146.651 299.688 147.136 299.688 147.693V148.192H294.161V147.067H297.979C297.979 146.805 297.923 146.574 297.809 146.372C297.695 146.17 297.538 146.013 297.336 145.899C297.137 145.783 296.906 145.724 296.641 145.724C296.366 145.724 296.121 145.788 295.908 145.916C295.698 146.041 295.533 146.21 295.414 146.423C295.295 146.634 295.234 146.868 295.231 147.126V148.196C295.231 148.52 295.29 148.8 295.41 149.036C295.532 149.271 295.704 149.453 295.925 149.581C296.147 149.709 296.41 149.773 296.714 149.773C296.915 149.773 297.1 149.744 297.268 149.688C297.435 149.631 297.579 149.545 297.698 149.432C297.817 149.318 297.908 149.179 297.971 149.014L299.65 149.125C299.565 149.528 299.39 149.881 299.126 150.182C298.864 150.48 298.526 150.713 298.112 150.881C297.7 151.045 297.224 151.128 296.684 151.128ZM304.354 144.455V145.818H300.413V144.455H304.354ZM301.308 142.886H303.123V148.989C303.123 149.156 303.148 149.287 303.2 149.381C303.251 149.472 303.322 149.536 303.413 149.572C303.506 149.609 303.614 149.628 303.737 149.628C303.822 149.628 303.907 149.621 303.992 149.607C304.077 149.589 304.143 149.577 304.188 149.568L304.474 150.919C304.383 150.947 304.255 150.98 304.09 151.017C303.925 151.057 303.725 151.081 303.489 151.089C303.052 151.107 302.668 151.048 302.339 150.915C302.012 150.781 301.758 150.574 301.576 150.293C301.394 150.011 301.305 149.656 301.308 149.227V142.886ZM306.828 151L305.047 144.455H306.884L307.898 148.852H307.957L309.014 144.455H310.817L311.891 148.827H311.946L312.943 144.455H314.776L312.999 151H311.077L309.952 146.884H309.871L308.746 151H306.828ZM318.537 151.128C317.875 151.128 317.303 150.987 316.82 150.706C316.34 150.422 315.969 150.027 315.708 149.521C315.446 149.013 315.316 148.423 315.316 147.753C315.316 147.077 315.446 146.486 315.708 145.98C315.969 145.472 316.34 145.077 316.82 144.795C317.303 144.511 317.875 144.369 318.537 144.369C319.199 144.369 319.77 144.511 320.25 144.795C320.733 145.077 321.105 145.472 321.367 145.98C321.628 146.486 321.759 147.077 321.759 147.753C321.759 148.423 321.628 149.013 321.367 149.521C321.105 150.027 320.733 150.422 320.25 150.706C319.77 150.987 319.199 151.128 318.537 151.128ZM318.546 149.722C318.847 149.722 319.098 149.636 319.3 149.466C319.502 149.293 319.654 149.057 319.756 148.759C319.861 148.46 319.914 148.121 319.914 147.74C319.914 147.359 319.861 147.02 319.756 146.722C319.654 146.423 319.502 146.187 319.3 146.014C319.098 145.841 318.847 145.754 318.546 145.754C318.242 145.754 317.986 145.841 317.779 146.014C317.574 146.187 317.419 146.423 317.314 146.722C317.212 147.02 317.161 147.359 317.161 147.74C317.161 148.121 317.212 148.46 317.314 148.759C317.419 149.057 317.574 149.293 317.779 149.466C317.986 149.636 318.242 149.722 318.546 149.722ZM322.939 151V144.455H324.699V145.597H324.767C324.887 145.19 325.087 144.884 325.368 144.676C325.65 144.466 325.973 144.361 326.34 144.361C326.431 144.361 326.529 144.366 326.634 144.378C326.739 144.389 326.831 144.405 326.911 144.425V146.036C326.826 146.01 326.708 145.987 326.557 145.967C326.407 145.947 326.269 145.938 326.144 145.938C325.877 145.938 325.638 145.996 325.428 146.112C325.221 146.226 325.056 146.385 324.934 146.589C324.814 146.794 324.755 147.03 324.755 147.297V151H322.939ZM329.494 149.116L329.499 146.939H329.763L331.859 144.455H333.943L331.126 147.744H330.696L329.494 149.116ZM327.849 151V142.273H329.665V151H327.849ZM331.94 151L330.014 148.149L331.224 146.866L334.067 151H331.94ZM340.28 146.321L338.618 146.423C338.589 146.281 338.528 146.153 338.435 146.04C338.341 145.923 338.217 145.831 338.064 145.763C337.913 145.692 337.733 145.656 337.523 145.656C337.241 145.656 337.004 145.716 336.811 145.835C336.618 145.952 336.521 146.108 336.521 146.304C336.521 146.46 336.584 146.592 336.709 146.7C336.834 146.808 337.048 146.895 337.352 146.96L338.537 147.199C339.173 147.33 339.648 147.54 339.96 147.83C340.273 148.119 340.429 148.5 340.429 148.972C340.429 149.401 340.303 149.777 340.05 150.101C339.8 150.425 339.456 150.678 339.018 150.859C338.584 151.038 338.082 151.128 337.514 151.128C336.648 151.128 335.957 150.947 335.443 150.587C334.932 150.223 334.632 149.729 334.544 149.104L336.33 149.01C336.384 149.274 336.514 149.476 336.722 149.615C336.929 149.751 337.195 149.82 337.518 149.82C337.837 149.82 338.092 149.759 338.286 149.636C338.482 149.511 338.581 149.351 338.584 149.155C338.581 148.99 338.511 148.855 338.375 148.75C338.239 148.642 338.028 148.56 337.744 148.503L336.611 148.277C335.972 148.149 335.496 147.928 335.183 147.612C334.874 147.297 334.719 146.895 334.719 146.406C334.719 145.986 334.832 145.624 335.06 145.32C335.29 145.016 335.612 144.781 336.027 144.616C336.445 144.452 336.933 144.369 337.493 144.369C338.32 144.369 338.97 144.544 339.445 144.893C339.922 145.243 340.2 145.719 340.28 146.321Z" fill="white"/>
<path d="M186.018 60.2727V69H184.173V60.2727H186.018ZM189.317 65.2159V69H187.502V62.4545H189.232V63.6094H189.309C189.453 63.2287 189.696 62.9276 190.037 62.706C190.378 62.4815 190.792 62.3693 191.277 62.3693C191.732 62.3693 192.128 62.4688 192.466 62.6676C192.804 62.8665 193.067 63.1506 193.255 63.5199C193.442 63.8864 193.536 64.3239 193.536 64.8324V69H191.721V65.1562C191.723 64.7557 191.621 64.4432 191.414 64.2188C191.206 63.9915 190.921 63.8778 190.557 63.8778C190.313 63.8778 190.097 63.9304 189.909 64.0355C189.725 64.1406 189.58 64.294 189.475 64.4957C189.373 64.6946 189.32 64.9347 189.317 65.2159ZM198.448 62.4545V63.8182H194.506V62.4545H198.448ZM195.401 60.8864H197.217V66.9886C197.217 67.1562 197.242 67.2869 197.293 67.3807C197.344 67.4716 197.415 67.5355 197.506 67.5724C197.6 67.6094 197.708 67.6278 197.83 67.6278C197.915 67.6278 198.001 67.6207 198.086 67.6065C198.171 67.5895 198.237 67.5767 198.282 67.5682L198.567 68.919C198.477 68.9474 198.349 68.9801 198.184 69.017C198.019 69.0568 197.819 69.081 197.583 69.0895C197.146 69.1065 196.762 69.0483 196.433 68.9148C196.106 68.7812 195.852 68.5739 195.67 68.2926C195.488 68.0114 195.398 67.6562 195.401 67.2273V60.8864ZM202.543 69.1278C201.87 69.1278 201.29 68.9915 200.805 68.7188C200.322 68.4432 199.95 68.054 199.688 67.5511C199.427 67.0455 199.296 66.4474 199.296 65.7571C199.296 65.0838 199.427 64.4929 199.688 63.9844C199.95 63.4759 200.317 63.0795 200.792 62.7955C201.269 62.5114 201.829 62.3693 202.471 62.3693C202.903 62.3693 203.305 62.4389 203.677 62.5781C204.052 62.7145 204.379 62.9205 204.657 63.196C204.938 63.4716 205.157 63.8182 205.313 64.2358C205.469 64.6506 205.548 65.1364 205.548 65.6932V66.1918H200.021V65.0668H203.839C203.839 64.8054 203.782 64.5739 203.668 64.3722C203.555 64.1705 203.397 64.0128 203.195 63.8991C202.996 63.7827 202.765 63.7244 202.501 63.7244C202.225 63.7244 201.981 63.7884 201.768 63.9162C201.558 64.0412 201.393 64.2102 201.273 64.4233C201.154 64.6335 201.093 64.8679 201.09 65.1264V66.196C201.09 66.5199 201.15 66.7997 201.269 67.0355C201.391 67.2713 201.563 67.4531 201.785 67.581C202.006 67.7088 202.269 67.7727 202.573 67.7727C202.775 67.7727 202.96 67.7443 203.127 67.6875C203.295 67.6307 203.438 67.5455 203.558 67.4318C203.677 67.3182 203.768 67.179 203.83 67.0142L205.509 67.125C205.424 67.5284 205.249 67.8807 204.985 68.1818C204.724 68.4801 204.386 68.7131 203.971 68.8807C203.559 69.0455 203.083 69.1278 202.543 69.1278ZM206.732 69V62.4545H208.492V63.5966H208.56C208.68 63.1903 208.88 62.8835 209.161 62.6761C209.442 62.4659 209.766 62.3608 210.133 62.3608C210.224 62.3608 210.322 62.3665 210.427 62.3778C210.532 62.3892 210.624 62.4048 210.704 62.4247V64.0355C210.619 64.0099 210.501 63.9872 210.35 63.9673C210.2 63.9474 210.062 63.9375 209.937 63.9375C209.67 63.9375 209.431 63.9957 209.221 64.1122C209.013 64.2259 208.849 64.3849 208.727 64.5895C208.607 64.794 208.548 65.0298 208.548 65.2969V69H206.732ZM213.458 65.2159V69H211.642V62.4545H213.373V63.6094H213.449C213.594 63.2287 213.837 62.9276 214.178 62.706C214.519 62.4815 214.932 62.3693 215.418 62.3693C215.873 62.3693 216.269 62.4688 216.607 62.6676C216.945 62.8665 217.208 63.1506 217.395 63.5199C217.583 63.8864 217.676 64.3239 217.676 64.8324V69H215.861V65.1562C215.864 64.7557 215.762 64.4432 215.554 64.2188C215.347 63.9915 215.061 63.8778 214.698 63.8778C214.453 63.8778 214.238 63.9304 214.05 64.0355C213.865 64.1406 213.721 64.294 213.615 64.4957C213.513 64.6946 213.461 64.9347 213.458 65.2159ZM222.09 69.1278C221.417 69.1278 220.837 68.9915 220.352 68.7188C219.869 68.4432 219.496 68.054 219.235 67.5511C218.974 67.0455 218.843 66.4474 218.843 65.7571C218.843 65.0838 218.974 64.4929 219.235 63.9844C219.496 63.4759 219.864 63.0795 220.339 62.7955C220.816 62.5114 221.376 62.3693 222.018 62.3693C222.45 62.3693 222.852 62.4389 223.224 62.5781C223.599 62.7145 223.925 62.9205 224.204 63.196C224.485 63.4716 224.704 63.8182 224.86 64.2358C225.016 64.6506 225.094 65.1364 225.094 65.6932V66.1918H219.567V65.0668H223.386C223.386 64.8054 223.329 64.5739 223.215 64.3722C223.102 64.1705 222.944 64.0128 222.742 63.8991C222.543 63.7827 222.312 63.7244 222.048 63.7244C221.772 63.7244 221.528 63.7884 221.315 63.9162C221.104 64.0412 220.94 64.2102 220.82 64.4233C220.701 64.6335 220.64 64.8679 220.637 65.1264V66.196C220.637 66.5199 220.697 66.7997 220.816 67.0355C220.938 67.2713 221.11 67.4531 221.332 67.581C221.553 67.7088 221.816 67.7727 222.12 67.7727C222.322 67.7727 222.506 67.7443 222.674 67.6875C222.842 67.6307 222.985 67.5455 223.104 67.4318C223.224 67.3182 223.315 67.179 223.377 67.0142L225.056 67.125C224.971 67.5284 224.796 67.8807 224.532 68.1818C224.271 68.4801 223.933 68.7131 223.518 68.8807C223.106 69.0455 222.63 69.1278 222.09 69.1278ZM229.761 62.4545V63.8182H225.819V62.4545H229.761ZM226.714 60.8864H228.529V66.9886C228.529 67.1562 228.555 67.2869 228.606 67.3807C228.657 67.4716 228.728 67.5355 228.819 67.5724C228.913 67.6094 229.021 67.6278 229.143 67.6278C229.228 67.6278 229.313 67.6207 229.398 67.6065C229.484 67.5895 229.549 67.5767 229.594 67.5682L229.88 68.919C229.789 68.9474 229.661 68.9801 229.496 69.017C229.332 69.0568 229.131 69.081 228.896 69.0895C228.458 69.1065 228.075 69.0483 227.745 68.9148C227.418 68.7812 227.164 68.5739 226.982 68.2926C226.8 68.0114 226.711 67.6562 226.714 67.2273V60.8864ZM233.422 61.794V60.2727H240.59V61.794H237.918V69H236.094V61.794H233.422ZM241.056 69V62.4545H242.816V63.5966H242.885C243.004 63.1903 243.204 62.8835 243.485 62.6761C243.767 62.4659 244.091 62.3608 244.457 62.3608C244.548 62.3608 244.646 62.3665 244.751 62.3778C244.856 62.3892 244.949 62.4048 245.028 62.4247V64.0355C244.943 64.0099 244.825 63.9872 244.674 63.9673C244.524 63.9474 244.386 63.9375 244.261 63.9375C243.994 63.9375 243.755 63.9957 243.545 64.1122C243.338 64.2259 243.173 64.3849 243.051 64.5895C242.931 64.794 242.872 65.0298 242.872 65.2969V69H241.056ZM247.646 69.1236C247.228 69.1236 246.856 69.0511 246.529 68.9062C246.202 68.7585 245.944 68.5412 245.754 68.2543C245.566 67.9645 245.472 67.6037 245.472 67.1719C245.472 66.8082 245.539 66.5028 245.673 66.2557C245.806 66.0085 245.988 65.8097 246.218 65.6591C246.448 65.5085 246.71 65.3949 247.002 65.3182C247.298 65.2415 247.607 65.1875 247.931 65.1562C248.312 65.1165 248.619 65.0795 248.852 65.0455C249.085 65.0085 249.254 64.9545 249.359 64.8835C249.464 64.8125 249.516 64.7074 249.516 64.5682V64.5426C249.516 64.2727 249.431 64.0639 249.261 63.9162C249.093 63.7685 248.854 63.6946 248.545 63.6946C248.218 63.6946 247.958 63.767 247.765 63.9119C247.572 64.054 247.444 64.233 247.381 64.4489L245.702 64.3125C245.788 63.9148 245.955 63.571 246.205 63.2812C246.455 62.9886 246.778 62.7642 247.173 62.608C247.57 62.4489 248.031 62.3693 248.553 62.3693C248.917 62.3693 249.265 62.4119 249.597 62.4972C249.933 62.5824 250.229 62.7145 250.488 62.8935C250.749 63.0724 250.955 63.3026 251.106 63.5838C251.256 63.8622 251.332 64.196 251.332 64.5852V69H249.61V68.0923H249.559C249.454 68.2969 249.313 68.4773 249.137 68.6335C248.961 68.7869 248.749 68.9077 248.502 68.9957C248.255 69.081 247.969 69.1236 247.646 69.1236ZM248.165 67.8707C248.433 67.8707 248.668 67.8182 248.873 67.7131C249.077 67.6051 249.238 67.4602 249.354 67.2784C249.471 67.0966 249.529 66.8906 249.529 66.6605V65.9659C249.472 66.0028 249.394 66.0369 249.295 66.0682C249.198 66.0966 249.089 66.1236 248.967 66.1491C248.844 66.1719 248.722 66.1932 248.6 66.2131C248.478 66.2301 248.367 66.2457 248.268 66.2599C248.055 66.2912 247.869 66.3409 247.71 66.4091C247.55 66.4773 247.427 66.5696 247.339 66.6861C247.251 66.7997 247.207 66.9418 247.207 67.1122C247.207 67.3594 247.296 67.5483 247.475 67.679C247.657 67.8068 247.887 67.8707 248.165 67.8707ZM256.26 62.4545V63.8182H252.22V62.4545H256.26ZM253.145 69V61.9815C253.145 61.5071 253.237 61.1136 253.422 60.8011C253.609 60.4886 253.865 60.2543 254.189 60.098C254.513 59.9418 254.881 59.8636 255.293 59.8636C255.571 59.8636 255.825 59.8849 256.055 59.9276C256.288 59.9702 256.462 60.0085 256.575 60.0426L256.251 61.4062C256.18 61.3835 256.092 61.3622 255.987 61.3423C255.885 61.3224 255.78 61.3125 255.672 61.3125C255.405 61.3125 255.219 61.375 255.114 61.5C255.009 61.6222 254.956 61.794 254.956 62.0156V69H253.145ZM260.889 62.4545V63.8182H256.849V62.4545H260.889ZM257.774 69V61.9815C257.774 61.5071 257.866 61.1136 258.051 60.8011C258.238 60.4886 258.494 60.2543 258.818 60.098C259.142 59.9418 259.51 59.8636 259.922 59.8636C260.2 59.8636 260.454 59.8849 260.684 59.9276C260.917 59.9702 261.091 60.0085 261.204 60.0426L260.88 61.4062C260.809 61.3835 260.721 61.3622 260.616 61.3423C260.514 61.3224 260.409 61.3125 260.301 61.3125C260.034 61.3125 259.848 61.375 259.743 61.5C259.637 61.6222 259.585 61.794 259.585 62.0156V69H257.774ZM261.998 69V62.4545H263.813V69H261.998ZM262.91 61.6108C262.64 61.6108 262.408 61.5213 262.215 61.3423C262.025 61.1605 261.93 60.9432 261.93 60.6903C261.93 60.4403 262.025 60.2259 262.215 60.0469C262.408 59.8651 262.64 59.7741 262.91 59.7741C263.18 59.7741 263.41 59.8651 263.6 60.0469C263.793 60.2259 263.89 60.4403 263.89 60.6903C263.89 60.9432 263.793 61.1605 263.6 61.3423C263.41 61.5213 263.18 61.6108 262.91 61.6108ZM268.225 69.1278C267.554 69.1278 266.978 68.9858 266.495 68.7017C266.015 68.4148 265.645 68.017 265.387 67.5085C265.131 67 265.003 66.4148 265.003 65.7528C265.003 65.0824 265.132 64.4943 265.391 63.9886C265.652 63.4801 266.023 63.0838 266.503 62.7997C266.983 62.5128 267.554 62.3693 268.216 62.3693C268.787 62.3693 269.287 62.473 269.716 62.6804C270.145 62.8878 270.485 63.179 270.735 63.554C270.985 63.929 271.123 64.3693 271.148 64.875H269.435C269.387 64.5483 269.259 64.2855 269.051 64.0866C268.847 63.8849 268.578 63.7841 268.246 63.7841C267.965 63.7841 267.719 63.8608 267.509 64.0142C267.301 64.1648 267.14 64.3849 267.023 64.6747C266.907 64.9645 266.848 65.3153 266.848 65.7273C266.848 66.1449 266.905 66.5 267.019 66.7926C267.135 67.0852 267.299 67.3082 267.509 67.4616C267.719 67.6151 267.965 67.6918 268.246 67.6918C268.453 67.6918 268.64 67.6491 268.804 67.5639C268.972 67.4787 269.11 67.3551 269.218 67.1932C269.328 67.0284 269.401 66.831 269.435 66.6009H271.148C271.12 67.1009 270.983 67.5412 270.739 67.9219C270.498 68.2997 270.164 68.5952 269.738 68.8082C269.311 69.0213 268.807 69.1278 268.225 69.1278Z" fill="black"/>
<path d="M131.155 206H128.061V197.273H131.181C132.058 197.273 132.814 197.447 133.448 197.797C134.081 198.143 134.568 198.642 134.909 199.293C135.253 199.943 135.425 200.722 135.425 201.628C135.425 202.537 135.253 203.318 134.909 203.972C134.568 204.625 134.078 205.126 133.439 205.476C132.803 205.825 132.041 206 131.155 206ZM129.906 204.419H131.078C131.624 204.419 132.083 204.322 132.455 204.129C132.83 203.933 133.111 203.631 133.298 203.222C133.489 202.81 133.584 202.278 133.584 201.628C133.584 200.983 133.489 200.456 133.298 200.047C133.111 199.638 132.831 199.337 132.459 199.143C132.087 198.95 131.628 198.854 131.083 198.854H129.906V204.419ZM138.624 206.124C138.206 206.124 137.834 206.051 137.508 205.906C137.181 205.759 136.922 205.541 136.732 205.254C136.545 204.964 136.451 204.604 136.451 204.172C136.451 203.808 136.518 203.503 136.651 203.256C136.785 203.009 136.966 202.81 137.197 202.659C137.427 202.509 137.688 202.395 137.981 202.318C138.276 202.241 138.586 202.188 138.91 202.156C139.29 202.116 139.597 202.08 139.83 202.045C140.063 202.009 140.232 201.955 140.337 201.884C140.442 201.812 140.495 201.707 140.495 201.568V201.543C140.495 201.273 140.41 201.064 140.239 200.916C140.072 200.768 139.833 200.695 139.523 200.695C139.197 200.695 138.937 200.767 138.743 200.912C138.55 201.054 138.422 201.233 138.36 201.449L136.681 201.312C136.766 200.915 136.934 200.571 137.184 200.281C137.434 199.989 137.756 199.764 138.151 199.608C138.549 199.449 139.009 199.369 139.532 199.369C139.895 199.369 140.243 199.412 140.576 199.497C140.911 199.582 141.208 199.714 141.466 199.893C141.728 200.072 141.934 200.303 142.084 200.584C142.235 200.862 142.31 201.196 142.31 201.585V206H140.589V205.092H140.537C140.432 205.297 140.292 205.477 140.116 205.634C139.939 205.787 139.728 205.908 139.481 205.996C139.233 206.081 138.948 206.124 138.624 206.124ZM139.144 204.871C139.411 204.871 139.647 204.818 139.851 204.713C140.056 204.605 140.216 204.46 140.333 204.278C140.449 204.097 140.508 203.891 140.508 203.661V202.966C140.451 203.003 140.373 203.037 140.273 203.068C140.177 203.097 140.067 203.124 139.945 203.149C139.823 203.172 139.701 203.193 139.579 203.213C139.456 203.23 139.346 203.246 139.246 203.26C139.033 203.291 138.847 203.341 138.688 203.409C138.529 203.477 138.405 203.57 138.317 203.686C138.229 203.8 138.185 203.942 138.185 204.112C138.185 204.359 138.275 204.548 138.454 204.679C138.635 204.807 138.866 204.871 139.144 204.871ZM147.2 199.455V200.818H143.258V199.455H147.2ZM144.153 197.886H145.969V203.989C145.969 204.156 145.994 204.287 146.045 204.381C146.096 204.472 146.167 204.536 146.258 204.572C146.352 204.609 146.46 204.628 146.582 204.628C146.667 204.628 146.753 204.621 146.838 204.607C146.923 204.589 146.988 204.577 147.034 204.568L147.319 205.919C147.229 205.947 147.101 205.98 146.936 206.017C146.771 206.057 146.571 206.081 146.335 206.089C145.898 206.107 145.514 206.048 145.184 205.915C144.858 205.781 144.604 205.574 144.422 205.293C144.24 205.011 144.15 204.656 144.153 204.227V197.886ZM150.249 206.124C149.831 206.124 149.459 206.051 149.133 205.906C148.806 205.759 148.547 205.541 148.357 205.254C148.17 204.964 148.076 204.604 148.076 204.172C148.076 203.808 148.143 203.503 148.276 203.256C148.41 203.009 148.591 202.81 148.822 202.659C149.052 202.509 149.313 202.395 149.606 202.318C149.901 202.241 150.211 202.188 150.535 202.156C150.915 202.116 151.222 202.08 151.455 202.045C151.688 202.009 151.857 201.955 151.962 201.884C152.067 201.812 152.12 201.707 152.12 201.568V201.543C152.12 201.273 152.035 201.064 151.864 200.916C151.697 200.768 151.458 200.695 151.148 200.695C150.822 200.695 150.562 200.767 150.368 200.912C150.175 201.054 150.047 201.233 149.985 201.449L148.306 201.312C148.391 200.915 148.559 200.571 148.809 200.281C149.059 199.989 149.381 199.764 149.776 199.608C150.174 199.449 150.634 199.369 151.157 199.369C151.52 199.369 151.868 199.412 152.201 199.497C152.536 199.582 152.833 199.714 153.091 199.893C153.353 200.072 153.559 200.303 153.709 200.584C153.86 200.862 153.935 201.196 153.935 201.585V206H152.214V205.092H152.162C152.057 205.297 151.917 205.477 151.741 205.634C151.564 205.787 151.353 205.908 151.106 205.996C150.858 206.081 150.573 206.124 150.249 206.124ZM150.769 204.871C151.036 204.871 151.272 204.818 151.476 204.713C151.681 204.605 151.841 204.46 151.958 204.278C152.074 204.097 152.133 203.891 152.133 203.661V202.966C152.076 203.003 151.998 203.037 151.898 203.068C151.802 203.097 151.692 203.124 151.57 203.149C151.448 203.172 151.326 203.193 151.204 203.213C151.081 203.23 150.971 203.246 150.871 203.26C150.658 203.291 150.472 203.341 150.313 203.409C150.154 203.477 150.03 203.57 149.942 203.686C149.854 203.8 149.81 203.942 149.81 204.112C149.81 204.359 149.9 204.548 150.079 204.679C150.26 204.807 150.491 204.871 150.769 204.871ZM158.155 206V197.273H160V204.479H163.742V206H158.155ZM167.887 206.128C167.225 206.128 166.653 205.987 166.17 205.706C165.689 205.422 165.319 205.027 165.057 204.521C164.796 204.013 164.665 203.423 164.665 202.753C164.665 202.077 164.796 201.486 165.057 200.98C165.319 200.472 165.689 200.077 166.17 199.795C166.653 199.511 167.225 199.369 167.887 199.369C168.549 199.369 169.12 199.511 169.6 199.795C170.083 200.077 170.455 200.472 170.716 200.98C170.978 201.486 171.108 202.077 171.108 202.753C171.108 203.423 170.978 204.013 170.716 204.521C170.455 205.027 170.083 205.422 169.6 205.706C169.12 205.987 168.549 206.128 167.887 206.128ZM167.895 204.722C168.197 204.722 168.448 204.636 168.65 204.466C168.851 204.293 169.003 204.057 169.106 203.759C169.211 203.46 169.263 203.121 169.263 202.74C169.263 202.359 169.211 202.02 169.106 201.722C169.003 201.423 168.851 201.187 168.65 201.014C168.448 200.841 168.197 200.754 167.895 200.754C167.591 200.754 167.336 200.841 167.128 201.014C166.924 201.187 166.769 201.423 166.664 201.722C166.562 202.02 166.51 202.359 166.51 202.74C166.51 203.121 166.562 203.46 166.664 203.759C166.769 204.057 166.924 204.293 167.128 204.466C167.336 204.636 167.591 204.722 167.895 204.722ZM177.735 201.321L176.073 201.423C176.045 201.281 175.983 201.153 175.89 201.04C175.796 200.923 175.672 200.831 175.519 200.763C175.368 200.692 175.188 200.656 174.978 200.656C174.697 200.656 174.459 200.716 174.266 200.835C174.073 200.952 173.976 201.108 173.976 201.304C173.976 201.46 174.039 201.592 174.164 201.7C174.289 201.808 174.503 201.895 174.807 201.96L175.992 202.199C176.628 202.33 177.103 202.54 177.415 202.83C177.728 203.119 177.884 203.5 177.884 203.972C177.884 204.401 177.758 204.777 177.505 205.101C177.255 205.425 176.911 205.678 176.474 205.859C176.039 206.038 175.537 206.128 174.969 206.128C174.103 206.128 173.412 205.947 172.898 205.587C172.387 205.223 172.087 204.729 171.999 204.104L173.785 204.01C173.839 204.274 173.969 204.476 174.177 204.615C174.384 204.751 174.65 204.82 174.974 204.82C175.292 204.82 175.547 204.759 175.741 204.636C175.937 204.511 176.036 204.351 176.039 204.155C176.036 203.99 175.966 203.855 175.83 203.75C175.694 203.642 175.483 203.56 175.199 203.503L174.066 203.277C173.427 203.149 172.951 202.928 172.638 202.612C172.329 202.297 172.174 201.895 172.174 201.406C172.174 200.986 172.287 200.624 172.515 200.32C172.745 200.016 173.067 199.781 173.482 199.616C173.9 199.452 174.388 199.369 174.948 199.369C175.775 199.369 176.425 199.544 176.9 199.893C177.377 200.243 177.655 200.719 177.735 201.321ZM184.473 201.321L182.811 201.423C182.783 201.281 182.722 201.153 182.628 201.04C182.534 200.923 182.411 200.831 182.257 200.763C182.107 200.692 181.926 200.656 181.716 200.656C181.435 200.656 181.198 200.716 181.004 200.835C180.811 200.952 180.715 201.108 180.715 201.304C180.715 201.46 180.777 201.592 180.902 201.7C181.027 201.808 181.242 201.895 181.546 201.96L182.73 202.199C183.367 202.33 183.841 202.54 184.154 202.83C184.466 203.119 184.622 203.5 184.622 203.972C184.622 204.401 184.496 204.777 184.243 205.101C183.993 205.425 183.649 205.678 183.212 205.859C182.777 206.038 182.276 206.128 181.708 206.128C180.841 206.128 180.151 205.947 179.637 205.587C179.125 205.223 178.825 204.729 178.737 204.104L180.523 204.01C180.577 204.274 180.708 204.476 180.915 204.615C181.122 204.751 181.388 204.82 181.712 204.82C182.03 204.82 182.286 204.759 182.479 204.636C182.675 204.511 182.774 204.351 182.777 204.155C182.774 203.99 182.705 203.855 182.568 203.75C182.432 203.642 182.222 203.56 181.938 203.503L180.804 203.277C180.165 203.149 179.689 202.928 179.377 202.612C179.067 202.297 178.912 201.895 178.912 201.406C178.912 200.986 179.026 200.624 179.253 200.32C179.483 200.016 179.806 199.781 180.22 199.616C180.638 199.452 181.127 199.369 181.686 199.369C182.513 199.369 183.164 199.544 183.638 199.893C184.115 200.243 184.394 200.719 184.473 201.321ZM188.577 206V197.273H192.02C192.682 197.273 193.246 197.399 193.712 197.652C194.178 197.902 194.533 198.25 194.777 198.696C195.024 199.139 195.148 199.651 195.148 200.23C195.148 200.81 195.023 201.321 194.773 201.764C194.523 202.207 194.161 202.553 193.686 202.8C193.215 203.047 192.644 203.17 191.973 203.17H189.779V201.692H191.675C192.03 201.692 192.323 201.631 192.553 201.509C192.786 201.384 192.959 201.212 193.073 200.993C193.189 200.771 193.247 200.517 193.247 200.23C193.247 199.94 193.189 199.687 193.073 199.472C192.959 199.253 192.786 199.084 192.553 198.964C192.32 198.842 192.024 198.781 191.666 198.781H190.422V206H188.577ZM196.312 206V199.455H198.072V200.597H198.14C198.26 200.19 198.46 199.884 198.741 199.676C199.023 199.466 199.346 199.361 199.713 199.361C199.804 199.361 199.902 199.366 200.007 199.378C200.112 199.389 200.204 199.405 200.284 199.425V201.036C200.199 201.01 200.081 200.987 199.93 200.967C199.78 200.947 199.642 200.938 199.517 200.938C199.25 200.938 199.011 200.996 198.801 201.112C198.594 201.226 198.429 201.385 198.307 201.589C198.187 201.794 198.128 202.03 198.128 202.297V206H196.312ZM203.901 206.128C203.227 206.128 202.648 205.991 202.162 205.719C201.679 205.443 201.307 205.054 201.046 204.551C200.784 204.045 200.654 203.447 200.654 202.757C200.654 202.084 200.784 201.493 201.046 200.984C201.307 200.476 201.675 200.08 202.149 199.795C202.627 199.511 203.186 199.369 203.828 199.369C204.26 199.369 204.662 199.439 205.034 199.578C205.409 199.714 205.736 199.92 206.014 200.196C206.296 200.472 206.514 200.818 206.671 201.236C206.827 201.651 206.905 202.136 206.905 202.693V203.192H201.378V202.067H205.196C205.196 201.805 205.139 201.574 205.026 201.372C204.912 201.17 204.754 201.013 204.553 200.899C204.354 200.783 204.122 200.724 203.858 200.724C203.583 200.724 203.338 200.788 203.125 200.916C202.915 201.041 202.75 201.21 202.631 201.423C202.512 201.634 202.45 201.868 202.448 202.126V203.196C202.448 203.52 202.507 203.8 202.627 204.036C202.749 204.271 202.921 204.453 203.142 204.581C203.364 204.709 203.627 204.773 203.931 204.773C204.132 204.773 204.317 204.744 204.485 204.688C204.652 204.631 204.796 204.545 204.915 204.432C205.034 204.318 205.125 204.179 205.188 204.014L206.867 204.125C206.781 204.528 206.607 204.881 206.343 205.182C206.081 205.48 205.743 205.713 205.328 205.881C204.916 206.045 204.441 206.128 203.901 206.128ZM214.016 199.455L211.728 206H209.682L207.394 199.455H209.312L210.671 204.138H210.739L212.094 199.455H214.016ZM217.717 206.128C217.044 206.128 216.464 205.991 215.979 205.719C215.496 205.443 215.123 205.054 214.862 204.551C214.601 204.045 214.47 203.447 214.47 202.757C214.47 202.084 214.601 201.493 214.862 200.984C215.123 200.476 215.491 200.08 215.966 199.795C216.443 199.511 217.003 199.369 217.645 199.369C218.077 199.369 218.479 199.439 218.851 199.578C219.226 199.714 219.552 199.92 219.831 200.196C220.112 200.472 220.331 200.818 220.487 201.236C220.643 201.651 220.721 202.136 220.721 202.693V203.192H215.194V202.067H219.013C219.013 201.805 218.956 201.574 218.842 201.372C218.729 201.17 218.571 201.013 218.369 200.899C218.17 200.783 217.939 200.724 217.675 200.724C217.399 200.724 217.155 200.788 216.942 200.916C216.731 201.041 216.567 201.21 216.447 201.423C216.328 201.634 216.267 201.868 216.264 202.126V203.196C216.264 203.52 216.324 203.8 216.443 204.036C216.565 204.271 216.737 204.453 216.959 204.581C217.18 204.709 217.443 204.773 217.747 204.773C217.949 204.773 218.133 204.744 218.301 204.688C218.469 204.631 218.612 204.545 218.731 204.432C218.851 204.318 218.942 204.179 219.004 204.014L220.683 204.125C220.598 204.528 220.423 204.881 220.159 205.182C219.898 205.48 219.559 205.713 219.145 205.881C218.733 206.045 218.257 206.128 217.717 206.128ZM223.721 202.216V206H221.906V199.455H223.636V200.609H223.713C223.858 200.229 224.101 199.928 224.442 199.706C224.782 199.482 225.196 199.369 225.682 199.369C226.136 199.369 226.532 199.469 226.871 199.668C227.209 199.866 227.471 200.151 227.659 200.52C227.846 200.886 227.94 201.324 227.94 201.832V206H226.125V202.156C226.128 201.756 226.025 201.443 225.818 201.219C225.611 200.991 225.325 200.878 224.961 200.878C224.717 200.878 224.501 200.93 224.314 201.036C224.129 201.141 223.984 201.294 223.879 201.496C223.777 201.695 223.724 201.935 223.721 202.216ZM232.852 199.455V200.818H228.911V199.455H232.852ZM229.806 197.886H231.621V203.989C231.621 204.156 231.646 204.287 231.698 204.381C231.749 204.472 231.82 204.536 231.911 204.572C232.004 204.609 232.112 204.628 232.235 204.628C232.32 204.628 232.405 204.621 232.49 204.607C232.575 204.589 232.641 204.577 232.686 204.568L232.972 205.919C232.881 205.947 232.753 205.98 232.588 206.017C232.423 206.057 232.223 206.081 231.987 206.089C231.55 206.107 231.166 206.048 230.837 205.915C230.51 205.781 230.256 205.574 230.074 205.293C229.892 205.011 229.803 204.656 229.806 204.227V197.886ZM234.035 206V199.455H235.85V206H234.035ZM234.947 198.611C234.677 198.611 234.445 198.521 234.252 198.342C234.062 198.161 233.967 197.943 233.967 197.69C233.967 197.44 234.062 197.226 234.252 197.047C234.445 196.865 234.677 196.774 234.947 196.774C235.217 196.774 235.447 196.865 235.637 197.047C235.83 197.226 235.927 197.44 235.927 197.69C235.927 197.943 235.83 198.161 235.637 198.342C235.447 198.521 235.217 198.611 234.947 198.611ZM240.262 206.128C239.6 206.128 239.028 205.987 238.545 205.706C238.064 205.422 237.694 205.027 237.432 204.521C237.171 204.013 237.04 203.423 237.04 202.753C237.04 202.077 237.171 201.486 237.432 200.98C237.694 200.472 238.064 200.077 238.545 199.795C239.028 199.511 239.6 199.369 240.262 199.369C240.924 199.369 241.495 199.511 241.975 199.795C242.458 200.077 242.83 200.472 243.091 200.98C243.353 201.486 243.483 202.077 243.483 202.753C243.483 203.423 243.353 204.013 243.091 204.521C242.83 205.027 242.458 205.422 241.975 205.706C241.495 205.987 240.924 206.128 240.262 206.128ZM240.27 204.722C240.572 204.722 240.823 204.636 241.025 204.466C241.226 204.293 241.378 204.057 241.481 203.759C241.586 203.46 241.638 203.121 241.638 202.74C241.638 202.359 241.586 202.02 241.481 201.722C241.378 201.423 241.226 201.187 241.025 201.014C240.823 200.841 240.572 200.754 240.27 200.754C239.966 200.754 239.711 200.841 239.503 201.014C239.299 201.187 239.144 201.423 239.039 201.722C238.937 202.02 238.885 202.359 238.885 202.74C238.885 203.121 238.937 203.46 239.039 203.759C239.144 204.057 239.299 204.293 239.503 204.466C239.711 204.636 239.966 204.722 240.27 204.722ZM246.479 202.216V206H244.664V199.455H246.394V200.609H246.471C246.616 200.229 246.858 199.928 247.199 199.706C247.54 199.482 247.954 199.369 248.439 199.369C248.894 199.369 249.29 199.469 249.628 199.668C249.966 199.866 250.229 200.151 250.417 200.52C250.604 200.886 250.698 201.324 250.698 201.832V206H248.883V202.156C248.885 201.756 248.783 201.443 248.576 201.219C248.368 200.991 248.083 200.878 247.719 200.878C247.475 200.878 247.259 200.93 247.072 201.036C246.887 201.141 246.742 201.294 246.637 201.496C246.535 201.695 246.482 201.935 246.479 202.216ZM256.773 206.124C256.355 206.124 255.983 206.051 255.656 205.906C255.329 205.759 255.071 205.541 254.881 205.254C254.693 204.964 254.599 204.604 254.599 204.172C254.599 203.808 254.666 203.503 254.8 203.256C254.933 203.009 255.115 202.81 255.345 202.659C255.575 202.509 255.836 202.395 256.129 202.318C256.425 202.241 256.734 202.188 257.058 202.156C257.439 202.116 257.746 202.08 257.979 202.045C258.211 202.009 258.381 201.955 258.486 201.884C258.591 201.812 258.643 201.707 258.643 201.568V201.543C258.643 201.273 258.558 201.064 258.388 200.916C258.22 200.768 257.981 200.695 257.672 200.695C257.345 200.695 257.085 200.767 256.892 200.912C256.699 201.054 256.571 201.233 256.508 201.449L254.829 201.312C254.915 200.915 255.082 200.571 255.332 200.281C255.582 199.989 255.905 199.764 256.3 199.608C256.697 199.449 257.157 199.369 257.68 199.369C258.044 199.369 258.392 199.412 258.724 199.497C259.059 199.582 259.356 199.714 259.615 199.893C259.876 200.072 260.082 200.303 260.233 200.584C260.383 200.862 260.459 201.196 260.459 201.585V206H258.737V205.092H258.686C258.581 205.297 258.44 205.477 258.264 205.634C258.088 205.787 257.876 205.908 257.629 205.996C257.382 206.081 257.096 206.124 256.773 206.124ZM257.292 204.871C257.559 204.871 257.795 204.818 258 204.713C258.204 204.605 258.365 204.46 258.481 204.278C258.598 204.097 258.656 203.891 258.656 203.661V202.966C258.599 203.003 258.521 203.037 258.422 203.068C258.325 203.097 258.216 203.124 258.094 203.149C257.971 203.172 257.849 203.193 257.727 203.213C257.605 203.23 257.494 203.246 257.395 203.26C257.182 203.291 256.996 203.341 256.836 203.409C256.677 203.477 256.554 203.57 256.466 203.686C256.378 203.8 256.334 203.942 256.334 204.112C256.334 204.359 256.423 204.548 256.602 204.679C256.784 204.807 257.014 204.871 257.292 204.871ZM263.682 202.216V206H261.867V199.455H263.597V200.609H263.674C263.819 200.229 264.062 199.928 264.403 199.706C264.743 199.482 265.157 199.369 265.643 199.369C266.097 199.369 266.493 199.469 266.831 199.668C267.17 199.866 267.432 200.151 267.62 200.52C267.807 200.886 267.901 201.324 267.901 201.832V206H266.086V202.156C266.089 201.756 265.986 201.443 265.779 201.219C265.572 200.991 265.286 200.878 264.922 200.878C264.678 200.878 264.462 200.93 264.275 201.036C264.09 201.141 263.945 201.294 263.84 201.496C263.738 201.695 263.685 201.935 263.682 202.216ZM271.744 206.107C271.247 206.107 270.796 205.979 270.393 205.723C269.992 205.464 269.674 205.085 269.438 204.585C269.205 204.082 269.089 203.466 269.089 202.736C269.089 201.986 269.21 201.362 269.451 200.865C269.693 200.365 270.014 199.991 270.414 199.744C270.818 199.494 271.259 199.369 271.74 199.369C272.106 199.369 272.411 199.432 272.656 199.557C272.903 199.679 273.102 199.832 273.252 200.017C273.406 200.199 273.522 200.378 273.602 200.554H273.657V197.273H275.468V206H273.678V204.952H273.602C273.517 205.134 273.396 205.314 273.24 205.493C273.086 205.669 272.886 205.815 272.639 205.932C272.394 206.048 272.096 206.107 271.744 206.107ZM272.319 204.662C272.612 204.662 272.859 204.582 273.061 204.423C273.265 204.261 273.421 204.036 273.529 203.746C273.64 203.456 273.695 203.116 273.695 202.727C273.695 202.338 273.642 202 273.534 201.713C273.426 201.426 273.269 201.205 273.065 201.048C272.86 200.892 272.612 200.814 272.319 200.814C272.021 200.814 271.769 200.895 271.565 201.057C271.36 201.219 271.205 201.443 271.1 201.73C270.995 202.017 270.943 202.349 270.943 202.727C270.943 203.108 270.995 203.445 271.1 203.737C271.208 204.027 271.363 204.254 271.565 204.419C271.769 204.581 272.021 204.662 272.319 204.662ZM279.772 206V197.273H281.617V204.479H285.359V206H279.772ZM289.504 206.128C288.842 206.128 288.27 205.987 287.787 205.706C287.307 205.422 286.936 205.027 286.675 204.521C286.413 204.013 286.282 203.423 286.282 202.753C286.282 202.077 286.413 201.486 286.675 200.98C286.936 200.472 287.307 200.077 287.787 199.795C288.27 199.511 288.842 199.369 289.504 199.369C290.166 199.369 290.737 199.511 291.217 199.795C291.7 200.077 292.072 200.472 292.334 200.98C292.595 201.486 292.726 202.077 292.726 202.753C292.726 203.423 292.595 204.013 292.334 204.521C292.072 205.027 291.7 205.422 291.217 205.706C290.737 205.987 290.166 206.128 289.504 206.128ZM289.513 204.722C289.814 204.722 290.065 204.636 290.267 204.466C290.469 204.293 290.621 204.057 290.723 203.759C290.828 203.46 290.881 203.121 290.881 202.74C290.881 202.359 290.828 202.02 290.723 201.722C290.621 201.423 290.469 201.187 290.267 201.014C290.065 200.841 289.814 200.754 289.513 200.754C289.209 200.754 288.953 200.841 288.746 201.014C288.541 201.187 288.386 201.423 288.281 201.722C288.179 202.02 288.128 202.359 288.128 202.74C288.128 203.121 288.179 203.46 288.281 203.759C288.386 204.057 288.541 204.293 288.746 204.466C288.953 204.636 289.209 204.722 289.513 204.722ZM296.855 208.591C296.267 208.591 295.763 208.51 295.342 208.348C294.925 208.189 294.592 207.972 294.345 207.696C294.098 207.42 293.937 207.111 293.863 206.767L295.542 206.541C295.594 206.672 295.675 206.794 295.785 206.908C295.896 207.021 296.042 207.112 296.224 207.18C296.409 207.251 296.633 207.287 296.898 207.287C297.292 207.287 297.618 207.19 297.873 206.997C298.132 206.807 298.261 206.487 298.261 206.038V204.841H298.184C298.105 205.023 297.986 205.195 297.827 205.357C297.667 205.518 297.463 205.651 297.213 205.753C296.963 205.855 296.665 205.906 296.318 205.906C295.827 205.906 295.379 205.793 294.976 205.565C294.575 205.335 294.256 204.984 294.017 204.513C293.781 204.038 293.663 203.439 293.663 202.714C293.663 201.973 293.784 201.354 294.025 200.857C294.267 200.359 294.588 199.987 294.988 199.74C295.392 199.493 295.834 199.369 296.314 199.369C296.68 199.369 296.987 199.432 297.234 199.557C297.481 199.679 297.68 199.832 297.831 200.017C297.984 200.199 298.102 200.378 298.184 200.554H298.253V199.455H300.055V206.064C300.055 206.621 299.919 207.087 299.646 207.462C299.373 207.837 298.996 208.118 298.513 208.305C298.032 208.496 297.48 208.591 296.855 208.591ZM296.893 204.543C297.186 204.543 297.433 204.47 297.635 204.325C297.839 204.178 297.996 203.967 298.104 203.695C298.214 203.419 298.27 203.089 298.27 202.706C298.27 202.322 298.216 201.99 298.108 201.709C298 201.425 297.844 201.205 297.639 201.048C297.434 200.892 297.186 200.814 296.893 200.814C296.595 200.814 296.344 200.895 296.139 201.057C295.934 201.216 295.78 201.437 295.675 201.722C295.569 202.006 295.517 202.334 295.517 202.706C295.517 203.084 295.569 203.411 295.675 203.686C295.782 203.959 295.937 204.17 296.139 204.321C296.344 204.469 296.595 204.543 296.893 204.543ZM304.449 208.591C303.861 208.591 303.356 208.51 302.936 208.348C302.518 208.189 302.186 207.972 301.939 207.696C301.692 207.42 301.531 207.111 301.457 206.767L303.136 206.541C303.187 206.672 303.268 206.794 303.379 206.908C303.49 207.021 303.636 207.112 303.818 207.18C304.003 207.251 304.227 207.287 304.491 207.287C304.886 207.287 305.211 207.19 305.467 206.997C305.726 206.807 305.855 206.487 305.855 206.038V204.841H305.778C305.699 205.023 305.579 205.195 305.42 205.357C305.261 205.518 305.057 205.651 304.807 205.753C304.557 205.855 304.258 205.906 303.912 205.906C303.42 205.906 302.973 205.793 302.569 205.565C302.169 205.335 301.849 204.984 301.611 204.513C301.375 204.038 301.257 203.439 301.257 202.714C301.257 201.973 301.378 201.354 301.619 200.857C301.861 200.359 302.182 199.987 302.582 199.74C302.986 199.493 303.427 199.369 303.907 199.369C304.274 199.369 304.581 199.432 304.828 199.557C305.075 199.679 305.274 199.832 305.425 200.017C305.578 200.199 305.696 200.378 305.778 200.554H305.846V199.455H307.649V206.064C307.649 206.621 307.513 207.087 307.24 207.462C306.967 207.837 306.589 208.118 306.106 208.305C305.626 208.496 305.074 208.591 304.449 208.591ZM304.487 204.543C304.78 204.543 305.027 204.47 305.229 204.325C305.433 204.178 305.589 203.967 305.697 203.695C305.808 203.419 305.863 203.089 305.863 202.706C305.863 202.322 305.809 201.99 305.702 201.709C305.594 201.425 305.437 201.205 305.233 201.048C305.028 200.892 304.78 200.814 304.487 200.814C304.189 200.814 303.937 200.895 303.733 201.057C303.528 201.216 303.373 201.437 303.268 201.722C303.163 202.006 303.111 202.334 303.111 202.706C303.111 203.084 303.163 203.411 303.268 203.686C303.376 203.959 303.531 204.17 303.733 204.321C303.937 204.469 304.189 204.543 304.487 204.543ZM309.094 206V199.455H310.909V206H309.094ZM310.006 198.611C309.736 198.611 309.504 198.521 309.311 198.342C309.121 198.161 309.025 197.943 309.025 197.69C309.025 197.44 309.121 197.226 309.311 197.047C309.504 196.865 309.736 196.774 310.006 196.774C310.275 196.774 310.506 196.865 310.696 197.047C310.889 197.226 310.986 197.44 310.986 197.69C310.986 197.943 310.889 198.161 310.696 198.342C310.506 198.521 310.275 198.611 310.006 198.611ZM314.178 202.216V206H312.363V199.455H314.093V200.609H314.17C314.315 200.229 314.558 199.928 314.899 199.706C315.24 199.482 315.653 199.369 316.139 199.369C316.593 199.369 316.99 199.469 317.328 199.668C317.666 199.866 317.928 200.151 318.116 200.52C318.303 200.886 318.397 201.324 318.397 201.832V206H316.582V202.156C316.585 201.756 316.482 201.443 316.275 201.219C316.068 200.991 315.782 200.878 315.419 200.878C315.174 200.878 314.958 200.93 314.771 201.036C314.586 201.141 314.441 201.294 314.336 201.496C314.234 201.695 314.181 201.935 314.178 202.216ZM322.777 208.591C322.189 208.591 321.684 208.51 321.264 208.348C320.846 208.189 320.514 207.972 320.267 207.696C320.02 207.42 319.859 207.111 319.785 206.767L321.464 206.541C321.515 206.672 321.596 206.794 321.707 206.908C321.818 207.021 321.964 207.112 322.146 207.18C322.331 207.251 322.555 207.287 322.819 207.287C323.214 207.287 323.54 207.19 323.795 206.997C324.054 206.807 324.183 206.487 324.183 206.038V204.841H324.106C324.027 205.023 323.907 205.195 323.748 205.357C323.589 205.518 323.385 205.651 323.135 205.753C322.885 205.855 322.586 205.906 322.24 205.906C321.748 205.906 321.301 205.793 320.898 205.565C320.497 205.335 320.177 204.984 319.939 204.513C319.703 204.038 319.585 203.439 319.585 202.714C319.585 201.973 319.706 201.354 319.947 200.857C320.189 200.359 320.51 199.987 320.91 199.74C321.314 199.493 321.756 199.369 322.236 199.369C322.602 199.369 322.909 199.432 323.156 199.557C323.403 199.679 323.602 199.832 323.753 200.017C323.906 200.199 324.024 200.378 324.106 200.554H324.175V199.455H325.977V206.064C325.977 206.621 325.841 207.087 325.568 207.462C325.295 207.837 324.917 208.118 324.434 208.305C323.954 208.496 323.402 208.591 322.777 208.591ZM322.815 204.543C323.108 204.543 323.355 204.47 323.557 204.325C323.761 204.178 323.917 203.967 324.025 203.695C324.136 203.419 324.192 203.089 324.192 202.706C324.192 202.322 324.138 201.99 324.03 201.709C323.922 201.425 323.765 201.205 323.561 201.048C323.356 200.892 323.108 200.814 322.815 200.814C322.517 200.814 322.265 200.895 322.061 201.057C321.856 201.216 321.702 201.437 321.596 201.722C321.491 202.006 321.439 202.334 321.439 202.706C321.439 203.084 321.491 203.411 321.596 203.686C321.704 203.959 321.859 204.17 322.061 204.321C322.265 204.469 322.517 204.543 322.815 204.543Z" fill="black"/>
<rect x="488" y="98" width="62" height="40" fill="#F6821F" stroke="#F6821F" stroke-width="2"/>
<path d="M503.368 109.783C503.334 109.439 503.188 109.172 502.929 108.982C502.67 108.791 502.32 108.696 501.876 108.696C501.575 108.696 501.321 108.739 501.114 108.824C500.906 108.906 500.747 109.021 500.636 109.169C500.528 109.317 500.474 109.484 500.474 109.672C500.469 109.828 500.501 109.964 500.572 110.081C500.646 110.197 500.747 110.298 500.875 110.384C501.003 110.466 501.151 110.538 501.318 110.601C501.486 110.661 501.665 110.712 501.855 110.754L502.639 110.942C503.02 111.027 503.369 111.141 503.688 111.283C504.006 111.425 504.281 111.599 504.514 111.807C504.747 112.014 504.928 112.259 505.055 112.54C505.186 112.821 505.253 113.143 505.256 113.507C505.253 114.041 505.116 114.504 504.847 114.896C504.58 115.286 504.193 115.588 503.688 115.804C503.185 116.017 502.578 116.124 501.868 116.124C501.163 116.124 500.55 116.016 500.027 115.8C499.507 115.584 499.101 115.264 498.808 114.841C498.518 114.415 498.366 113.888 498.352 113.26H500.138C500.158 113.553 500.241 113.797 500.389 113.993C500.54 114.186 500.74 114.332 500.99 114.432C501.243 114.528 501.528 114.577 501.847 114.577C502.159 114.577 502.43 114.531 502.661 114.44C502.893 114.349 503.074 114.223 503.202 114.061C503.33 113.899 503.393 113.713 503.393 113.503C503.393 113.307 503.335 113.142 503.219 113.009C503.105 112.875 502.938 112.761 502.716 112.668C502.497 112.574 502.229 112.489 501.911 112.412L500.96 112.173C500.224 111.994 499.643 111.714 499.217 111.334C498.791 110.953 498.58 110.44 498.582 109.795C498.58 109.267 498.72 108.805 499.004 108.411C499.291 108.016 499.685 107.707 500.185 107.486C500.685 107.264 501.253 107.153 501.889 107.153C502.537 107.153 503.102 107.264 503.585 107.486C504.071 107.707 504.449 108.016 504.719 108.411C504.989 108.805 505.128 109.263 505.136 109.783H503.368ZM509.944 109.455V110.818H506.002V109.455H509.944ZM506.897 107.886H508.713V113.989C508.713 114.156 508.738 114.287 508.789 114.381C508.841 114.472 508.912 114.536 509.002 114.572C509.096 114.609 509.204 114.628 509.326 114.628C509.412 114.628 509.497 114.621 509.582 114.607C509.667 114.589 509.733 114.577 509.778 114.568L510.064 115.919C509.973 115.947 509.845 115.98 509.68 116.017C509.515 116.057 509.315 116.081 509.079 116.089C508.642 116.107 508.258 116.048 507.929 115.915C507.602 115.781 507.348 115.574 507.166 115.293C506.984 115.011 506.895 114.656 506.897 114.227V107.886ZM514.039 116.128C513.366 116.128 512.787 115.991 512.301 115.719C511.818 115.443 511.446 115.054 511.184 114.551C510.923 114.045 510.792 113.447 510.792 112.757C510.792 112.084 510.923 111.493 511.184 110.984C511.446 110.476 511.814 110.08 512.288 109.795C512.765 109.511 513.325 109.369 513.967 109.369C514.399 109.369 514.801 109.439 515.173 109.578C515.548 109.714 515.875 109.92 516.153 110.196C516.434 110.472 516.653 110.818 516.809 111.236C516.966 111.651 517.044 112.136 517.044 112.693V113.192H511.517V112.067H515.335C515.335 111.805 515.278 111.574 515.164 111.372C515.051 111.17 514.893 111.013 514.691 110.899C514.493 110.783 514.261 110.724 513.997 110.724C513.721 110.724 513.477 110.788 513.264 110.916C513.054 111.041 512.889 111.21 512.77 111.423C512.65 111.634 512.589 111.868 512.586 112.126V113.196C512.586 113.52 512.646 113.8 512.765 114.036C512.887 114.271 513.059 114.453 513.281 114.581C513.502 114.709 513.765 114.773 514.069 114.773C514.271 114.773 514.456 114.744 514.623 114.688C514.791 114.631 514.934 114.545 515.054 114.432C515.173 114.318 515.264 114.179 515.326 114.014L517.005 114.125C516.92 114.528 516.745 114.881 516.481 115.182C516.22 115.48 515.882 115.713 515.467 115.881C515.055 116.045 514.579 116.128 514.039 116.128ZM520.095 116.124C519.677 116.124 519.305 116.051 518.978 115.906C518.652 115.759 518.393 115.541 518.203 115.254C518.015 114.964 517.922 114.604 517.922 114.172C517.922 113.808 517.988 113.503 518.122 113.256C518.255 113.009 518.437 112.81 518.667 112.659C518.897 112.509 519.159 112.395 519.451 112.318C519.747 112.241 520.056 112.188 520.38 112.156C520.761 112.116 521.068 112.08 521.301 112.045C521.534 112.009 521.703 111.955 521.808 111.884C521.913 111.812 521.966 111.707 521.966 111.568V111.543C521.966 111.273 521.88 111.064 521.71 110.916C521.542 110.768 521.304 110.695 520.994 110.695C520.667 110.695 520.407 110.767 520.214 110.912C520.021 111.054 519.893 111.233 519.831 111.449L518.152 111.312C518.237 110.915 518.404 110.571 518.654 110.281C518.904 109.989 519.227 109.764 519.622 109.608C520.02 109.449 520.48 109.369 521.002 109.369C521.366 109.369 521.714 109.412 522.047 109.497C522.382 109.582 522.679 109.714 522.937 109.893C523.199 110.072 523.404 110.303 523.555 110.584C523.706 110.862 523.781 111.196 523.781 111.585V116H522.059V115.092H522.008C521.903 115.297 521.762 115.477 521.586 115.634C521.41 115.787 521.199 115.908 520.951 115.996C520.704 116.081 520.419 116.124 520.095 116.124ZM520.615 114.871C520.882 114.871 521.118 114.818 521.322 114.713C521.527 114.605 521.687 114.46 521.804 114.278C521.92 114.097 521.978 113.891 521.978 113.661V112.966C521.922 113.003 521.843 113.037 521.744 113.068C521.647 113.097 521.538 113.124 521.416 113.149C521.294 113.172 521.172 113.193 521.049 113.213C520.927 113.23 520.816 113.246 520.717 113.26C520.504 113.291 520.318 113.341 520.159 113.409C520 113.477 519.876 113.57 519.788 113.686C519.7 113.8 519.656 113.942 519.656 114.112C519.656 114.359 519.745 114.548 519.924 114.679C520.106 114.807 520.336 114.871 520.615 114.871ZM527.601 116.107C527.104 116.107 526.654 115.979 526.25 115.723C525.85 115.464 525.532 115.085 525.296 114.585C525.063 114.082 524.946 113.466 524.946 112.736C524.946 111.986 525.067 111.362 525.309 110.865C525.55 110.365 525.871 109.991 526.272 109.744C526.675 109.494 527.117 109.369 527.597 109.369C527.963 109.369 528.269 109.432 528.513 109.557C528.76 109.679 528.959 109.832 529.11 110.017C529.263 110.199 529.38 110.378 529.459 110.554H529.515V107.273H531.326V116H529.536V114.952H529.459C529.374 115.134 529.253 115.314 529.097 115.493C528.944 115.669 528.743 115.815 528.496 115.932C528.252 116.048 527.953 116.107 527.601 116.107ZM528.176 114.662C528.469 114.662 528.716 114.582 528.918 114.423C529.123 114.261 529.279 114.036 529.387 113.746C529.498 113.456 529.553 113.116 529.553 112.727C529.553 112.338 529.499 112 529.391 111.713C529.283 111.426 529.127 111.205 528.922 111.048C528.718 110.892 528.469 110.814 528.176 110.814C527.878 110.814 527.627 110.895 527.422 111.057C527.218 111.219 527.063 111.443 526.958 111.73C526.853 112.017 526.8 112.349 526.8 112.727C526.8 113.108 526.853 113.445 526.958 113.737C527.066 114.027 527.221 114.254 527.422 114.419C527.627 114.581 527.878 114.662 528.176 114.662ZM533.939 118.455C533.709 118.455 533.493 118.436 533.291 118.399C533.092 118.365 532.928 118.321 532.797 118.267L533.206 116.912C533.419 116.977 533.611 117.013 533.781 117.018C533.955 117.024 534.104 116.984 534.229 116.899C534.357 116.814 534.46 116.669 534.54 116.464L534.646 116.188L532.298 109.455H534.207L535.562 114.261H535.631L536.999 109.455H538.92L536.376 116.707C536.254 117.06 536.088 117.366 535.878 117.628C535.67 117.892 535.408 118.095 535.089 118.237C534.771 118.382 534.388 118.455 533.939 118.455ZM508.366 123.783C508.332 123.439 508.186 123.172 507.927 122.982C507.669 122.791 507.318 122.696 506.874 122.696C506.573 122.696 506.319 122.739 506.112 122.824C505.904 122.906 505.745 123.021 505.634 123.169C505.526 123.317 505.472 123.484 505.472 123.672C505.467 123.828 505.499 123.964 505.57 124.081C505.644 124.197 505.745 124.298 505.873 124.384C506.001 124.466 506.149 124.538 506.316 124.601C506.484 124.661 506.663 124.712 506.853 124.754L507.637 124.942C508.018 125.027 508.367 125.141 508.686 125.283C509.004 125.425 509.279 125.599 509.512 125.807C509.745 126.014 509.926 126.259 510.053 126.54C510.184 126.821 510.251 127.143 510.254 127.507C510.251 128.041 510.115 128.504 509.845 128.896C509.578 129.286 509.191 129.588 508.686 129.804C508.183 130.017 507.576 130.124 506.866 130.124C506.161 130.124 505.548 130.016 505.025 129.8C504.505 129.584 504.099 129.264 503.806 128.841C503.517 128.415 503.365 127.888 503.35 127.26H505.136C505.156 127.553 505.24 127.797 505.387 127.993C505.538 128.186 505.738 128.332 505.988 128.432C506.241 128.528 506.526 128.577 506.845 128.577C507.157 128.577 507.428 128.531 507.659 128.44C507.892 128.349 508.072 128.223 508.2 128.061C508.328 127.899 508.392 127.713 508.392 127.503C508.392 127.307 508.333 127.142 508.217 127.009C508.103 126.875 507.936 126.761 507.714 126.668C507.495 126.574 507.227 126.489 506.909 126.412L505.958 126.173C505.222 125.994 504.642 125.714 504.215 125.334C503.789 124.953 503.578 124.44 503.58 123.795C503.578 123.267 503.718 122.805 504.002 122.411C504.289 122.016 504.683 121.707 505.183 121.486C505.683 121.264 506.251 121.153 506.887 121.153C507.535 121.153 508.1 121.264 508.583 121.486C509.069 121.707 509.447 122.016 509.717 122.411C509.987 122.805 510.126 123.263 510.134 123.783H508.366ZM514.942 123.455V124.818H511.001V123.455H514.942ZM511.895 121.886H513.711V127.989C513.711 128.156 513.736 128.287 513.787 128.381C513.839 128.472 513.91 128.536 514.001 128.572C514.094 128.609 514.202 128.628 514.324 128.628C514.41 128.628 514.495 128.621 514.58 128.607C514.665 128.589 514.731 128.577 514.776 128.568L515.062 129.919C514.971 129.947 514.843 129.98 514.678 130.017C514.513 130.057 514.313 130.081 514.077 130.089C513.64 130.107 513.256 130.048 512.927 129.915C512.6 129.781 512.346 129.574 512.164 129.293C511.982 129.011 511.893 128.656 511.895 128.227V121.886ZM517.991 130.124C517.574 130.124 517.202 130.051 516.875 129.906C516.548 129.759 516.29 129.541 516.099 129.254C515.912 128.964 515.818 128.604 515.818 128.172C515.818 127.808 515.885 127.503 516.018 127.256C516.152 127.009 516.334 126.81 516.564 126.659C516.794 126.509 517.055 126.395 517.348 126.318C517.643 126.241 517.953 126.188 518.277 126.156C518.657 126.116 518.964 126.08 519.197 126.045C519.43 126.009 519.599 125.955 519.704 125.884C519.809 125.812 519.862 125.707 519.862 125.568V125.543C519.862 125.273 519.777 125.064 519.606 124.916C519.439 124.768 519.2 124.695 518.89 124.695C518.564 124.695 518.304 124.767 518.111 124.912C517.917 125.054 517.79 125.233 517.727 125.449L516.048 125.312C516.133 124.915 516.301 124.571 516.551 124.281C516.801 123.989 517.123 123.764 517.518 123.608C517.916 123.449 518.376 123.369 518.899 123.369C519.263 123.369 519.611 123.412 519.943 123.497C520.278 123.582 520.575 123.714 520.834 123.893C521.095 124.072 521.301 124.303 521.452 124.584C521.602 124.862 521.677 125.196 521.677 125.585V130H519.956V129.092H519.905C519.8 129.297 519.659 129.477 519.483 129.634C519.307 129.787 519.095 129.908 518.848 129.996C518.601 130.081 518.315 130.124 517.991 130.124ZM518.511 128.871C518.778 128.871 519.014 128.818 519.219 128.713C519.423 128.605 519.584 128.46 519.7 128.278C519.817 128.097 519.875 127.891 519.875 127.661V126.966C519.818 127.003 519.74 127.037 519.64 127.068C519.544 127.097 519.434 127.124 519.312 127.149C519.19 127.172 519.068 127.193 518.946 127.213C518.824 127.23 518.713 127.246 518.613 127.26C518.4 127.291 518.214 127.341 518.055 127.409C517.896 127.477 517.773 127.57 517.684 127.686C517.596 127.8 517.552 127.942 517.552 128.112C517.552 128.359 517.642 128.548 517.821 128.679C518.003 128.807 518.233 128.871 518.511 128.871ZM526.567 123.455V124.818H522.626V123.455H526.567ZM523.52 121.886H525.336V127.989C525.336 128.156 525.361 128.287 525.412 128.381C525.464 128.472 525.535 128.536 525.626 128.572C525.719 128.609 525.827 128.628 525.949 128.628C526.035 128.628 526.12 128.621 526.205 128.607C526.29 128.589 526.356 128.577 526.401 128.568L526.687 129.919C526.596 129.947 526.468 129.98 526.303 130.017C526.138 130.057 525.938 130.081 525.702 130.089C525.265 130.107 524.881 130.048 524.552 129.915C524.225 129.781 523.971 129.574 523.789 129.293C523.607 129.011 523.518 128.656 523.52 128.227V121.886ZM530.662 130.128C529.989 130.128 529.41 129.991 528.924 129.719C528.441 129.443 528.069 129.054 527.807 128.551C527.546 128.045 527.415 127.447 527.415 126.757C527.415 126.084 527.546 125.493 527.807 124.984C528.069 124.476 528.437 124.08 528.911 123.795C529.388 123.511 529.948 123.369 530.59 123.369C531.022 123.369 531.424 123.439 531.796 123.578C532.171 123.714 532.498 123.92 532.776 124.196C533.057 124.472 533.276 124.818 533.432 125.236C533.589 125.651 533.667 126.136 533.667 126.693V127.192H528.14V126.067H531.958C531.958 125.805 531.901 125.574 531.787 125.372C531.674 125.17 531.516 125.013 531.314 124.899C531.116 124.783 530.884 124.724 530.62 124.724C530.344 124.724 530.1 124.788 529.887 124.916C529.677 125.041 529.512 125.21 529.393 125.423C529.273 125.634 529.212 125.868 529.209 126.126V127.196C529.209 127.52 529.269 127.8 529.388 128.036C529.51 128.271 529.682 128.453 529.904 128.581C530.126 128.709 530.388 128.773 530.692 128.773C530.894 128.773 531.079 128.744 531.246 128.688C531.414 128.631 531.557 128.545 531.677 128.432C531.796 128.318 531.887 128.179 531.949 128.014L533.628 128.125C533.543 128.528 533.368 128.881 533.104 129.182C532.843 129.48 532.505 129.713 532.09 129.881C531.678 130.045 531.202 130.128 530.662 130.128Z" fill="white"/>
<line x1="466" y1="118" x2="501" y2="118" stroke="#F6821F" stroke-width="2"/>
</g>
<defs>
<clipPath id="clip0_2_2">
<rect width="559" height="246" fill="white"/>
</clipPath>
</defs>
</svg>
