<?xml version="1.0" encoding="UTF-8" standalone="no"?>
<!DOCTYPE svg PUBLIC "-//W3C//DTD SVG 1.1//EN" "http://www.w3.org/Graphics/SVG/1.1/DTD/svg11.dtd">
<svg xmlns:xl="http://www.w3.org/1999/xlink" xmlns:dc="http://purl.org/dc/elements/1.1/" xmlns="http://www.w3.org/2000/svg" version="1.1" viewBox="401 507 1006 377" width="1006" height="377">
  <defs>
    <clipPath id="inner_stroke_clip_path">
      <path d="M 721.6391 630.3372 L 779.2455 630.3372 L 779.2455 686.5355 L 721.6391 686.5355 Z"/>
    </clipPath>
    <clipPath id="inner_stroke_clip_path_2">
      <path d="M 721.6391 782.7338 L 779.2455 782.7338 L 779.2455 838.9321 L 721.6391 838.9321 Z"/>
    </clipPath>
    <clipPath id="inner_stroke_clip_path_3">
      <path d="M 721.6391 706.5355 L 779.2455 706.5355 L 779.2455 762.7338 L 721.6391 762.7338 Z"/>
    </clipPath>
    <clipPath id="inner_stroke_clip_path_4">
      <path d="M 426.6391 706.7677 L 516.6391 706.7677 L 516.6391 762.7677 L 426.6391 762.7677 Z"/>
    </clipPath>
    <clipPath id="inner_stroke_clip_path_5">
      <path d="M 426.6391 610.3372 L 516.6391 610.3372 L 516.6391 666.3372 L 426.6391 666.3372 Z"/>
    </clipPath>
    <clipPath id="inner_stroke_clip_path_6">
      <path d="M 586.6391 706.7677 L 701.6391 706.7677 L 701.6391 762.7677 L 586.6391 762.7677 Z"/>
    </clipPath>
    <clipPath id="inner_stroke_clip_path_7">
      <path d="M 1120.9962 533 L 1228.9962 533 L 1228.9962 589 L 1120.9962 589 Z"/>
    </clipPath>
    <clipPath id="inner_stroke_clip_path_8">
      <path d="M 1028.4962 742.8209 L 1125.4962 742.8209 L 1125.4962 798.8209 L 1028.4962 798.8209 Z"/>
    </clipPath>
    <clipPath id="inner_stroke_clip_path_9">
      <path d="M 1224.3608 742.8209 L 1321.3608 742.8209 L 1321.3608 798.8209 L 1224.3608 798.8209 Z"/>
    </clipPath>
  </defs>
  <g id="245576435_Update_code_change_process_diagram_in_BeyondProd_whitepaper" stroke-dasharray="none" fill-opacity="1" stroke="none" stroke-opacity="1" fill="none">
    <title>245576435_Update code change process diagram in BeyondProd whitepaper</title>
    <g id="245576435_Update_code_change_process_diagram_in_BeyondProd_whitepaper_Layer_1">
      <title>Layer 1</title>
      <g id="Group_549">
        <g id="Graphic_173">
          <title>zone external - blue</title>
          <rect x="406.6391" y="512" width="994.7218" height="367" fill="#e1f6fe"/>
        </g>
        <g id="Group_221">
          <g id="Graphic_176">
            <text transform="translate(453.5064 549.5)" fill="#757575">
              <tspan font-family="Roboto" font-size="10" fill="#757575" x="0" y="9">Commit</tspan>
              <tspan font-family="Roboto" font-size="10" fill="#757575" x="0" y="21">code change</tspan>
            </text>
          </g>
          <g id="Graphic_175">
            <circle cx="436.0327" cy="561" r="9.50001518006802" fill="#ccc"/>
            <text transform="translate(433.4327 555.5)" fill="#757575">
              <tspan font-family="Roboto" font-size="10" fill="#757575" x="0" y="9">1</tspan>
            </text>
          </g>
        </g>
        <g id="Group_177">
          <g id="Graphic_179">
            <text transform="translate(634.3393 555.5)" fill="#757575">
              <tspan font-family="Roboto" font-size="10" fill="#757575" x="0" y="9">Automated build and deploy</tspan>
            </text>
          </g>
          <g id="Graphic_178">
            <circle cx="616.79236" cy="561" r="9.50001518006805" fill="#ccc"/>
            <text transform="translate(614.19236 555.5)" fill="#757575">
              <tspan font-family="Roboto" font-size="10" fill="#757575" x="0" y="9">2</tspan>
            </text>
          </g>
        </g>
        <g id="Graphic_197">
          <title>zone internal - yellow</title>
          <rect x="968.6315" y="609.9417" width="412.7293" height="249.17325" fill="#fff8e0"/>
          <rect x="968.6315" y="609.9417" width="412.7293" height="249.17325" stroke="white" stroke-linecap="round" stroke-linejoin="round" stroke-width="2"/>
          <text transform="translate(978.6315 624.9417)" fill="#757575">
            <tspan font-family="Roboto" font-size="10" fill="#757575" x="344.0135" y="9">Production</tspan>
            <tspan font-family="Roboto" font-size="10" fill="#757575" x="337.14825" y="20">environment</tspan>
          </text>
        </g>
        <g id="Graphic_196">
          <title>zone internal - purple</title>
          <rect x="989.6315" y="655.3167" width="175.8647" height="182.29648" fill="#ede7f7"/>
          <rect x="989.6315" y="655.3167" width="175.8647" height="182.29648" stroke="white" stroke-linecap="round" stroke-linejoin="round" stroke-width="2"/>
          <text transform="translate(999.6315 670.3167)" fill="#757575">
            <tspan font-family="Roboto" font-size="10" fill="#757575" x="0" y="9">Borg job</tspan>
          </text>
        </g>
        <g id="Graphic_195">
          <title>zone internal - green</title>
          <rect x="1008.4962" y="698.6149" width="137" height="120.42485" fill="#e2f3ec"/>
          <rect x="1008.4962" y="698.6149" width="137" height="120.42485" stroke="white" stroke-linecap="round" stroke-linejoin="round" stroke-width="2"/>
          <text transform="translate(1018.4962 713.6149)" fill="#757575">
            <tspan font-family="Roboto" font-size="10" fill="#757575" x="0" y="9">gVisor</tspan>
          </text>
        </g>
        <g id="Graphic_207">
          <title>zone internal - yellow</title>
          <rect x="566.6391" y="610.3372" width="232.873" height="248.66282" fill="#fef7e0"/>
          <rect x="566.6391" y="610.3372" width="232.873" height="248.66282" stroke="white" stroke-linecap="round" stroke-linejoin="round" stroke-width="2"/>
          <text transform="translate(576.6391 625.3372)" fill="#757575">
            <tspan font-family="Roboto" font-size="10" fill="#757575" x="0" y="9">CI/CD pipeline</tspan>
          </text>
        </g>
        <g id="Graphic_211">
          <text transform="translate(809.0327 682)" fill="#757575">
            <tspan font-family="Roboto" font-size="10" fill="#757575" x="0" y="9">Requirements enforced with</tspan>
            <tspan font-family="Roboto" font-size="10" fill="#757575" x="0" y="21">Binary Authorization for Borg</tspan>
          </text>
        </g>
        <g id="Graphic_210">
          <text transform="translate(809.0327 724.9954)" fill="#757575">
            <tspan font-family="Roboto" font-size="10" fill="#757575" x="0" y="9">Workload is isolated using gVisor</tspan>
          </text>
        </g>
        <g id="Graphic_209">
          <text transform="translate(809.0327 755.9908)" fill="#757575">
            <tspan font-family="Roboto" font-size="10" fill="#757575" x="0" y="9">Machine integrity verified using</tspan>
            <tspan font-family="Roboto" font-size="10" fill="#757575" x="0" y="21">host integrity</tspan>
          </text>
        </g>
        <g id="Group_218">
          <g id="Graphic_220">
            <text transform="translate(837.8491 555.5)" fill="#757575">
              <tspan font-family="Roboto" font-size="10" fill="#757575" x="0" y="9">Replace existing service</tspan>
            </text>
          </g>
          <g id="Graphic_219">
            <circle cx="820.812" cy="561" r="9.50001518006807" fill="#ccc"/>
            <text transform="translate(818.212 555.5)" fill="#757575">
              <tspan font-family="Roboto" font-size="10" fill="#757575" x="0" y="9">3</tspan>
            </text>
          </g>
        </g>
        <g id="Graphic_496">
          <title>zone internal - purple</title>
          <rect x="1185.4962" y="655.3167" width="175.8647" height="182.29648" fill="#ede7f7"/>
          <rect x="1185.4962" y="655.3167" width="175.8647" height="182.29648" stroke="white" stroke-linecap="round" stroke-linejoin="round" stroke-width="2"/>
          <text transform="translate(1195.4962 670.3167)" fill="#757575">
            <tspan font-family="Roboto" font-size="10" fill="#757575" x="0" y="9">Borg job</tspan>
          </text>
        </g>
        <g id="Graphic_497">
          <title>zone external - green</title>
          <rect x="1204.3608" y="698.6149" width="137" height="120.42485" fill="#e2f3ec"/>
          <rect x="1204.3608" y="698.6149" width="137" height="120.42485" stroke="white" stroke-linecap="round" stroke-linejoin="round" stroke-width="2"/>
          <text transform="translate(1214.3608 713.6149)" fill="#757575">
            <tspan font-family="Roboto" font-size="10" fill="#757575" x="0" y="9">gVisor</tspan>
          </text>
        </g>
        <g id="Graphic_526">
          <text transform="translate(447.88666 769.6795)" fill="#757575">
            <tspan font-family="Roboto" font-size="10" fill="#757575" x="0" y="9">Commit reviewed</tspan>
          </text>
        </g>
        <g id="Group_532">
          <g id="Graphic_534">
            <text transform="translate(1265.6179 549.5)" fill="#757575">
              <tspan font-family="Roboto" font-size="10" fill="#757575" x="0" y="9">Load balance and change</tspan>
              <tspan font-family="Roboto" font-size="10" fill="#757575" x="0" y="21">routing using GFE</tspan>
            </text>
          </g>
          <g id="Graphic_533">
            <circle cx="1248.5807" cy="561" r="9.50001518006801" fill="#ccc"/>
            <text transform="translate(1245.9807 555.5)" fill="#757575">
              <tspan font-family="Roboto" font-size="10" fill="#757575" x="0" y="9">4</tspan>
            </text>
          </g>
        </g>
        <g id="Graphic_540">
          <path d="M 471.1391 666.3372 L 471.1391 696.8677 C 471.1391 697.1439 471.36296 697.3677 471.6391 697.3677 C 471.91524 697.3677 472.1391 697.1439 472.1391 696.8677 L 472.1391 666.3372 C 472.1391 666.061 471.91524 665.8372 471.6391 665.8372 C 471.36296 665.8372 471.1391 666.061 471.1391 666.3372 Z M 472.1391 704.8677 L 472.1391 696.8677 L 471.1391 696.8677 L 471.1391 704.8677 Z M 475.28555 700.5142 L 471.28555 704.5142 L 471.99265 704.5142 L 467.99265 700.5142 L 467.28555 701.2213 L 471.28555 705.2213 L 471.6391 705.5748 L 471.99265 705.2213 L 475.99265 701.2213 Z" fill="#616161"/>
        </g>
        <g id="Graphic_541">
          <path d="M 516.6391 735.2677 L 576.7391 735.2677 C 577.0152 735.2677 577.2391 735.0439 577.2391 734.7677 C 577.2391 734.4916 577.0152 734.2677 576.7391 734.2677 L 516.6391 734.2677 C 516.36296 734.2677 516.1391 734.4916 516.1391 734.7677 C 516.1391 735.0439 516.36296 735.2677 516.6391 735.2677 Z M 584.7391 734.2677 L 576.7391 734.2677 L 576.7391 735.2677 L 584.7391 735.2677 Z M 580.3855 731.1213 L 584.3855 735.1213 L 584.3855 734.4142 L 580.3855 738.4142 L 581.09264 739.1213 L 585.09264 735.1213 L 585.4462 734.7677 L 585.09264 734.4142 L 581.09264 730.4142 Z" fill="#616161"/>
        </g>
        <g id="Graphic_542">
          <path d="M 644.6391 706.7677 L 644.6391 658.2394 L 644.1391 658.7394 L 693.2056 658.7394 L 706.7318 658.9363 L 711.7391 658.93635 C 712.0152 658.93635 712.2391 658.7125 712.2391 658.43635 C 712.2391 658.1602 712.0152 657.93635 711.7391 657.93635 L 706.7391 657.93635 L 693.2129 657.7394 L 644.1391 657.7394 C 643.86294 657.7394 643.6391 657.9632 643.6391 658.2394 L 643.6391 706.7677 C 643.6391 707.0439 643.86294 707.2677 644.1391 707.2677 C 644.4152 707.2677 644.6391 707.0439 644.6391 706.7677 Z M 719.7391 657.93635 L 711.7391 657.93635 L 711.7391 658.93635 L 719.7391 658.93635 Z M 715.3855 654.7899 L 719.3855 658.7899 L 719.3855 658.0828 L 715.3855 662.0828 L 716.0926 662.7899 L 720.0926 658.7899 L 720.4462 658.43635 L 720.0926 658.0828 L 716.0926 654.0828 Z" fill="#616161"/>
        </g>
        <g id="Graphic_543">
          <path d="M 749.9423 686.5355 L 749.9423 706.5355 C 749.9423 706.8117 750.1661 707.0355 750.4423 707.0355 C 750.7184 707.0355 750.9423 706.8117 750.9423 706.5355 L 750.9423 686.5355 C 750.9423 686.2593 750.7184 686.0355 750.4423 686.0355 C 750.1661 686.0355 749.9423 686.2593 749.9423 686.5355 Z" fill="#616161"/>
        </g>
        <g id="Graphic_544">
          <path d="M 750.9423 782.7338 L 750.9423 762.7338 C 750.9423 762.4576 750.7184 762.2338 750.4423 762.2338 C 750.1661 762.2338 749.9423 762.4576 749.9423 762.7338 L 749.9423 782.7338 C 749.9423 783.01 750.1661 783.2338 750.4423 783.2338 C 750.7184 783.2338 750.9423 783.01 750.9423 782.7338 Z" fill="#616161"/>
        </g>
        <g id="Graphic_545">
          <path d="M 779.2455 811.333 L 979.7315 811.333 C 980.0077 811.333 980.2315 811.1091 980.2315 810.833 C 980.2315 810.5568 980.0077 810.333 979.7315 810.333 L 779.2455 810.333 C 778.9693 810.333 778.7455 810.5568 778.7455 810.833 C 778.7455 811.1091 778.9693 811.333 779.2455 811.333 Z M 987.7315 810.333 L 979.7315 810.333 L 979.7315 811.333 L 987.7315 811.333 Z M 983.378 807.1865 L 987.378 811.1865 L 987.378 810.4794 L 983.378 814.4794 L 984.0851 815.1865 L 988.0851 811.1865 L 988.4386 810.833 L 988.0851 810.4794 L 984.0851 806.4794 Z" fill="#616161"/>
        </g>
        <g id="Graphic_546">
          <path d="M 1175.4962 635.0926 L 1175.4962 589 C 1175.4962 588.72386 1175.2723 588.5 1174.9962 588.5 C 1174.72 588.5 1174.4962 588.72386 1174.4962 589 L 1174.4962 635.0926 C 1174.4962 635.3687 1174.72 635.5926 1174.9962 635.5926 C 1175.2723 635.5926 1175.4962 635.3687 1175.4962 635.0926 Z" fill="#616161"/>
        </g>
        <g id="Graphic_547">
          <path d="M 1273.3608 732.9209 L 1273.3608 635.03 C 1273.3608 634.75384 1273.137 634.53 1272.8608 634.53 L 1076.9962 634.53 C 1076.72 634.53 1076.4962 634.75384 1076.4962 635.03 L 1076.4962 732.9209 C 1076.4962 733.197 1076.72 733.4209 1076.9962 733.4209 C 1077.2723 733.4209 1077.4962 733.197 1077.4962 732.9209 L 1077.4962 635.03 L 1076.9962 635.53 L 1272.8608 635.53 L 1272.3608 635.03 L 1272.3608 732.9209 C 1272.3608 733.197 1272.5847 733.4209 1272.8608 733.4209 C 1273.137 733.4209 1273.3608 733.197 1273.3608 732.9209 Z M 1077.4962 740.9209 L 1077.4962 732.9209 L 1076.4962 732.9209 L 1076.4962 740.9209 Z M 1080.6426 736.56735 L 1076.6426 740.56735 L 1077.3497 740.56735 L 1073.3497 736.56735 L 1072.6426 737.27445 L 1076.6426 741.27445 L 1076.9962 741.628 L 1077.3497 741.27445 L 1081.3497 737.27445 Z M 1273.3608 740.9209 L 1273.3608 732.9209 L 1272.3608 732.9209 L 1272.3608 740.9209 Z M 1276.5073 736.56735 L 1272.5073 740.56735 L 1273.2144 740.56735 L 1269.2144 736.56735 L 1268.5073 737.27445 L 1272.5073 741.27445 L 1272.8608 741.628 L 1273.2144 741.27445 L 1277.2144 737.27445 Z" fill="#616161"/>
        </g>
        <g id="Graphic_205">
          <rect x="721.6391" y="630.3372" width="57.6064" height="56.19826" fill="white"/>
          <rect x="721.6391" y="630.3372" width="57.6064" height="56.19826" stroke="#dfdfdf" stroke-linecap="round" stroke-linejoin="round" stroke-width="2" clip-path="url(#inner_stroke_clip_path)"/>
          <text transform="translate(737.0946 651.43635)" fill="#212121">
            <tspan font-family="Roboto" font-size="12" fill="#212121" x="0" y="11">Build</tspan>
          </text>
        </g>
        <g id="Graphic_203">
          <rect x="721.6391" y="782.7338" width="57.6064" height="56.19826" fill="white"/>
          <rect x="721.6391" y="782.7338" width="57.6064" height="56.19826" stroke="#dfdfdf" stroke-linecap="round" stroke-linejoin="round" stroke-width="2" clip-path="url(#inner_stroke_clip_path_2)"/>
          <text transform="translate(737.162 803.833)" fill="#212121">
            <tspan font-family="Roboto" font-size="12" fill="#212121" x="0" y="11">Scan</tspan>
          </text>
        </g>
        <g id="Graphic_204">
          <rect x="721.6391" y="706.5355" width="57.6064" height="56.19826" fill="white"/>
          <rect x="721.6391" y="706.5355" width="57.6064" height="56.19826" stroke="#dfdfdf" stroke-linecap="round" stroke-linejoin="round" stroke-width="2" clip-path="url(#inner_stroke_clip_path_3)"/>
          <text transform="translate(738.621 727.63465)" fill="#212121">
            <tspan font-family="Roboto" font-size="12" fill="#212121" x="0" y="11">Test</tspan>
          </text>
        </g>
        <g id="Group_437">
          <g id="Graphic_439">
            <rect x="426.6391" y="706.7677" width="90" height="56" fill="white"/>
            <rect x="426.6391" y="706.7677" width="90" height="56" stroke="#dfdfdf" stroke-linecap="round" stroke-linejoin="round" stroke-width="2" clip-path="url(#inner_stroke_clip_path_4)"/>
            <text transform="translate(468.6391 727.7677)" fill="#212121">
              <tspan font-family="Roboto" font-size="12" fill="#212121" x="0" y="11">User 2</tspan>
            </text>
          </g>
          <g id="Graphic_438">
            <path d="M 458.2179 739.7018 C 459.1225 739.7018 459.8626 738.9617 459.8626 738.0571 L 459.8626 729.8336 C 459.8626 728.929 459.1225 728.1889 458.2179 728.1889 L 445.0603 728.1889 C 444.1557 728.1889 443.4156 728.929 443.4156 729.8336 L 443.4156 738.0571 C 443.4156 738.9617 444.1557 739.7018 445.0603 739.7018 L 441.7709 739.7018 L 441.7709 741.3465 L 461.5073 741.3465 L 461.5073 739.7018 Z M 445.0603 729.8336 L 458.2179 729.8336 L 458.2179 738.0571 L 445.0603 738.0571 Z" fill="#616161"/>
          </g>
        </g>
        <g id="Group_440">
          <g id="Graphic_442">
            <rect x="426.6391" y="610.3372" width="90" height="56" fill="white"/>
            <rect x="426.6391" y="610.3372" width="90" height="56" stroke="#dfdfdf" stroke-linecap="round" stroke-linejoin="round" stroke-width="2" clip-path="url(#inner_stroke_clip_path_5)"/>
            <text transform="translate(468.6391 631.3372)" fill="#212121">
              <tspan font-family="Roboto" font-size="12" fill="#212121" x="0" y="11">User 1</tspan>
            </text>
          </g>
          <g id="Graphic_441">
            <path d="M 458.2179 643.2713 C 459.1225 643.2713 459.8626 642.53115 459.8626 641.6266 L 459.8626 633.40306 C 459.8626 632.4985 459.1225 631.75836 458.2179 631.75836 L 445.0603 631.75836 C 444.1557 631.75836 443.4156 632.4985 443.4156 633.40306 L 443.4156 641.6266 C 443.4156 642.53115 444.1557 643.2713 445.0603 643.2713 L 441.7709 643.2713 L 441.7709 644.916 L 461.5073 644.916 L 461.5073 643.2713 Z M 445.0603 633.40306 L 458.2179 633.40306 L 458.2179 641.6266 L 445.0603 641.6266 Z" fill="#616161"/>
          </g>
        </g>
        <g id="Group_519">
          <g id="Graphic_522">
            <rect x="586.6391" y="706.7677" width="115" height="56" fill="white"/>
            <rect x="586.6391" y="706.7677" width="115" height="56" stroke="#dfdfdf" stroke-linecap="round" stroke-linejoin="round" stroke-width="2" clip-path="url(#inner_stroke_clip_path_6)"/>
            <text transform="translate(628.6391 720.7677)" fill="#212121">
              <tspan font-family="Roboto" font-size="12" fill="#212121" x="0" y="11">Code</tspan>
              <tspan font-family="Roboto" font-size="12" fill="#212121" x="0" y="25">repository</tspan>
            </text>
          </g>
          <g id="Group_520">
            <g id="Graphic_521">
              <path d="M 619.5073 728.1889 L 603.5073 728.1889 C 602.3973 728.1889 601.5073 729.0889 601.5073 730.1889 L 601.5073 742.1889 C 601.5073 743.2889 602.3973 744.1889 603.5073 744.1889 L 619.5073 744.1889 C 620.6073 744.1889 621.5073 743.2889 621.5073 742.1889 L 621.5073 730.1889 C 621.5073 729.0889 620.6173 728.1889 619.5073 728.1889 Z M 619.5073 742.1889 L 603.5073 742.1889 L 603.5073 732.1889 L 619.5073 732.1889 Z M 617.5073 741.1889 L 611.5073 741.1889 L 611.5073 739.1889 L 617.5073 739.1889 Z M 607.0073 741.1889 L 605.5973 739.7789 L 608.1773 737.1889 L 605.5873 734.5989 L 607.0073 733.1889 L 611.0073 737.1889 Z" fill="#616161"/>
            </g>
          </g>
        </g>
        <g id="Group_434">
          <g id="Graphic_436">
            <rect x="1120.9962" y="533" width="108" height="56" fill="white"/>
            <rect x="1120.9962" y="533" width="108" height="56" stroke="#dfdfdf" stroke-linecap="round" stroke-linejoin="round" stroke-width="2" clip-path="url(#inner_stroke_clip_path_7)"/>
            <text transform="translate(1162.9962 547)" fill="#212121">
              <tspan font-family="Roboto" font-size="12" fill="#212121" x="0" y="11">Google</tspan>
              <tspan font-family="Roboto" font-size="12" fill="#212121" x="0" y="25">Front End</tspan>
            </text>
          </g>
          <g id="Graphic_435">
            <path d="M 1152.7404 552 L 1138.7404 552 C 1137.6304 552 1136.7404 552.9 1136.7404 554 L 1136.7404 566 C 1136.7404 567.1 1137.6304 568 1138.7404 568 L 1152.7404 568 C 1153.8404 568 1154.7404 567.1 1154.7404 566 L 1154.7404 554 C 1154.7404 552.9 1153.8504 552 1152.7404 552 Z M 1152.7404 566 L 1138.7404 566 L 1138.7404 556 L 1152.7404 556 Z" fill="#616161"/>
          </g>
        </g>
        <g id="Group_467">
          <g id="Group_471">
            <g id="Graphic_475">
              <rect x="1028.4962" y="742.8209" width="97" height="56" fill="white"/>
              <rect x="1028.4962" y="742.8209" width="97" height="56" stroke="#dfdfdf" stroke-linecap="round" stroke-linejoin="round" stroke-width="2" clip-path="url(#inner_stroke_clip_path_8)"/>
              <text transform="translate(1070.4962 763.8209)" fill="#212121">
                <tspan font-family="Roboto" font-size="12" fill="#212121" x="0" y="11">Service</tspan>
              </text>
            </g>
            <g id="Group_472">
              <g id="Graphic_474">
                <path d="M 1062.1267 770.5599 C 1062.3378 770.5599 1062.4962 770.4015 1062.4962 770.1904 L 1062.4962 769.557 C 1062.4962 769.3458 1062.3378 769.1347 1062.0739 769.1347 L 1060.068 769.1347 L 1060.068 767.0232 L 1062.0739 767.0232 C 1062.285 767.0232 1062.4434 766.8649 1062.4434 766.6537 L 1062.4434 765.9675 C 1062.4434 765.7564 1062.285 765.598 1062.0211 765.598 L 1060.0152 765.598 L 1060.0152 763.6977 C 1060.0152 763.4338 1059.8041 763.2754 1059.593 763.2754 L 1057.6927 763.2754 L 1057.6927 761.2168 C 1057.6927 761.00565 1057.5343 760.8473 1057.3232 760.8473 L 1056.6897 760.8473 C 1056.4786 760.8473 1056.3202 761.00565 1056.3202 761.2168 L 1056.3202 763.2227 L 1054.2088 763.2227 L 1054.2088 761.2168 C 1054.2088 761.00565 1054.0504 760.8473 1053.8393 760.8473 L 1053.2059 760.8473 C 1052.9947 760.8473 1052.8364 761.00565 1052.7836 761.2168 L 1052.7836 763.2227 L 1050.6721 763.2227 L 1050.6721 761.2696 C 1050.6721 761.0584 1050.5138 760.9001 1050.3026 760.8473 L 1049.6164 760.8473 C 1049.4053 760.8473 1049.2469 761.00565 1049.2469 761.2168 L 1049.2469 763.2227 L 1047.3466 763.2227 C 1047.0827 763.2227 1046.9243 763.4338 1046.9243 763.64495 L 1046.9243 765.598 L 1044.8657 765.598 C 1044.6545 765.598 1044.4962 765.7564 1044.4962 765.9675 L 1044.4962 766.6537 C 1044.4962 766.8649 1044.6545 767.0232 1044.8657 767.0232 L 1046.8715 767.0232 L 1046.8715 769.1347 L 1044.8657 769.1347 C 1044.6545 769.1347 1044.4962 769.293 1044.4962 769.5042 L 1044.4962 770.1904 C 1044.4962 770.4015 1044.6545 770.5599 1044.8657 770.6127 L 1046.8715 770.6127 L 1046.8715 772.7241 L 1044.8657 772.7241 C 1044.6545 772.7241 1044.4962 772.8825 1044.4962 773.0936 L 1044.4962 773.7271 C 1044.4962 773.9382 1044.6545 774.0966 1044.8657 774.0966 L 1046.8715 774.0966 L 1046.8715 775.99685 C 1046.8715 776.2608 1047.0827 776.4191 1047.2938 776.4191 L 1049.2469 776.4191 L 1049.2469 778.425 C 1049.2469 778.63615 1049.4053 778.7945 1049.6164 778.7945 L 1050.3026 778.7945 C 1050.5138 778.7945 1050.6721 778.63615 1050.6721 778.425 L 1050.6721 776.4191 L 1052.7836 776.4191 L 1052.7836 778.425 C 1052.7836 778.63615 1052.9419 778.7945 1053.1531 778.7945 L 1053.8393 778.7945 C 1054.0504 778.7945 1054.2088 778.63615 1054.2088 778.425 L 1054.2088 776.4191 L 1056.3202 776.4191 L 1056.3202 778.425 C 1056.3202 778.63615 1056.4786 778.7945 1056.6897 778.7945 L 1057.3232 778.7945 C 1057.5343 778.7945 1057.6927 778.63615 1057.6927 778.425 L 1057.6927 776.4191 L 1059.593 776.4191 C 1059.8569 776.4191 1060.0152 776.208 1060.0152 775.99685 L 1060.0152 774.0966 L 1062.0211 774.0966 C 1062.2322 774.0966 1062.3906 773.9382 1062.3906 773.7271 L 1062.3906 773.0936 C 1062.3906 772.8825 1062.2322 772.6713 1061.9683 772.6713 L 1059.9625 772.6713 L 1059.9625 770.5599 L 1062.1267 770.5599 Z M 1058.6428 774.9939 L 1048.4023 774.9939 L 1048.4023 764.75345 L 1058.6428 764.75345 L 1058.6428 774.9939 Z" fill="#616161"/>
              </g>
              <g id="Graphic_473">
                <path d="M 1050.9888 767.76225 C 1050.9888 767.5511 1051.2 767.39275 1051.4111 767.34 L 1055.634 767.34 C 1055.8979 767.34 1056.0563 767.5511 1056.0563 767.76225 L 1056.0563 771.9323 C 1056.0563 772.1963 1055.8451 772.3546 1055.634 772.3546 L 1051.4111 772.3546 C 1051.2 772.3546 1050.9888 772.1435 1050.9888 771.9323 Z" fill="#616161"/>
              </g>
            </g>
          </g>
          <g id="Group_468">
            <g id="Graphic_470">
              <title>Stroke-21</title>
              <line x1="1033.4124" y1="802.8716" x2="1120.064" y2="802.8716" stroke="white" stroke-linecap="butt" stroke-linejoin="round" stroke-width="1.732"/>
            </g>
            <g id="Graphic_469">
              <title>Stroke-22</title>
              <line x1="1036.6906" y1="807.5382" x2="1116.7858" y2="807.5382" stroke="white" stroke-linecap="butt" stroke-linejoin="round" stroke-width="1.601"/>
            </g>
          </g>
        </g>
        <g id="Group_498">
          <g id="Group_502">
            <g id="Graphic_506">
              <rect x="1224.3608" y="742.8209" width="97" height="56" fill="white"/>
              <rect x="1224.3608" y="742.8209" width="97" height="56" stroke="#dfdfdf" stroke-linecap="round" stroke-linejoin="round" stroke-width="2" clip-path="url(#inner_stroke_clip_path_9)"/>
              <text transform="translate(1266.3608 763.8209)" fill="#212121">
                <tspan font-family="Roboto" font-size="12" fill="#212121" x="0" y="11">Service</tspan>
              </text>
            </g>
            <g id="Group_503">
              <g id="Graphic_505">
                <path d="M 1257.9913 770.5599 C 1258.2025 770.5599 1258.3608 770.4015 1258.3608 770.1904 L 1258.3608 769.557 C 1258.3608 769.3458 1258.2025 769.1347 1257.9385 769.1347 L 1255.9327 769.1347 L 1255.9327 767.0232 L 1257.9385 767.0232 C 1258.1497 767.0232 1258.308 766.8649 1258.308 766.6537 L 1258.308 765.9675 C 1258.308 765.7564 1258.1497 765.598 1257.8857 765.598 L 1255.8799 765.598 L 1255.8799 763.6977 C 1255.8799 763.4338 1255.6687 763.2754 1255.4576 763.2754 L 1253.5573 763.2754 L 1253.5573 761.2168 C 1253.5573 761.00565 1253.399 760.8473 1253.1878 760.8473 L 1252.5544 760.8473 C 1252.3432 760.8473 1252.1849 761.00565 1252.1849 761.2168 L 1252.1849 763.2227 L 1250.0734 763.2227 L 1250.0734 761.2168 C 1250.0734 761.00565 1249.915 760.8473 1249.704 760.8473 L 1249.0705 760.8473 C 1248.8594 760.8473 1248.701 761.00565 1248.6482 761.2168 L 1248.6482 763.2227 L 1246.5368 763.2227 L 1246.5368 761.2696 C 1246.5368 761.0584 1246.3784 760.9001 1246.1673 760.8473 L 1245.481 760.8473 C 1245.2699 760.8473 1245.1116 761.00565 1245.1116 761.2168 L 1245.1116 763.2227 L 1243.2113 763.2227 C 1242.9473 763.2227 1242.789 763.4338 1242.789 763.64495 L 1242.789 765.598 L 1240.7303 765.598 C 1240.5192 765.598 1240.3608 765.7564 1240.3608 765.9675 L 1240.3608 766.6537 C 1240.3608 766.8649 1240.5192 767.0232 1240.7303 767.0232 L 1242.7362 767.0232 L 1242.7362 769.1347 L 1240.7303 769.1347 C 1240.5192 769.1347 1240.3608 769.293 1240.3608 769.5042 L 1240.3608 770.1904 C 1240.3608 770.4015 1240.5192 770.5599 1240.7303 770.6127 L 1242.7362 770.6127 L 1242.7362 772.7241 L 1240.7303 772.7241 C 1240.5192 772.7241 1240.3608 772.8825 1240.3608 773.0936 L 1240.3608 773.7271 C 1240.3608 773.9382 1240.5192 774.0966 1240.7303 774.0966 L 1242.7362 774.0966 L 1242.7362 775.99685 C 1242.7362 776.2608 1242.9473 776.4191 1243.1585 776.4191 L 1245.1116 776.4191 L 1245.1116 778.425 C 1245.1116 778.63615 1245.2699 778.7945 1245.481 778.7945 L 1246.1673 778.7945 C 1246.3784 778.7945 1246.5368 778.63615 1246.5368 778.425 L 1246.5368 776.4191 L 1248.6482 776.4191 L 1248.6482 778.425 C 1248.6482 778.63615 1248.8066 778.7945 1249.0177 778.7945 L 1249.704 778.7945 C 1249.915 778.7945 1250.0734 778.63615 1250.0734 778.425 L 1250.0734 776.4191 L 1252.1849 776.4191 L 1252.1849 778.425 C 1252.1849 778.63615 1252.3432 778.7945 1252.5544 778.7945 L 1253.1878 778.7945 C 1253.399 778.7945 1253.5573 778.63615 1253.5573 778.425 L 1253.5573 776.4191 L 1255.4576 776.4191 C 1255.7215 776.4191 1255.8799 776.208 1255.8799 775.99685 L 1255.8799 774.0966 L 1257.8857 774.0966 C 1258.0969 774.0966 1258.2552 773.9382 1258.2552 773.7271 L 1258.2552 773.0936 C 1258.2552 772.8825 1258.0969 772.6713 1257.833 772.6713 L 1255.8271 772.6713 L 1255.8271 770.5599 L 1257.9913 770.5599 Z M 1254.5074 774.9939 L 1244.267 774.9939 L 1244.267 764.75345 L 1254.5074 764.75345 L 1254.5074 774.9939 Z" fill="#616161"/>
              </g>
              <g id="Graphic_504">
                <path d="M 1246.8535 767.76225 C 1246.8535 767.5511 1247.0646 767.39275 1247.2758 767.34 L 1251.4987 767.34 C 1251.7626 767.34 1251.921 767.5511 1251.921 767.76225 L 1251.921 771.9323 C 1251.921 772.1963 1251.7098 772.3546 1251.4987 772.3546 L 1247.2758 772.3546 C 1247.0646 772.3546 1246.8535 772.1435 1246.8535 771.9323 Z" fill="#616161"/>
              </g>
            </g>
          </g>
          <g id="Group_499">
            <g id="Graphic_501">
              <title>Stroke-21</title>
              <line x1="1229.277" y1="802.8716" x2="1315.9287" y2="802.8716" stroke="white" stroke-linecap="butt" stroke-linejoin="round" stroke-width="1.732"/>
            </g>
            <g id="Graphic_500">
              <title>Stroke-22</title>
              <line x1="1232.5553" y1="807.5382" x2="1312.6504" y2="807.5382" stroke="white" stroke-linecap="butt" stroke-linejoin="round" stroke-width="1.601"/>
            </g>
          </g>
        </g>
      </g>
    </g>
  </g>
</svg>
